<svg id="Layer_1" data-name="Layer 1" xmlns="http://www.w3.org/2000/svg" viewBox="0 0 512 512"><defs><style>.cls-1{fill:#30d4ff;}</style></defs><title>Artboard 1</title><path class="cls-1" d="M256.73,215.1c.08,0,.19,0,.23,0a15,15,0,0,0,3.9-5.71,1.09,1.09,0,0,0-.51-1.48,5.35,5.35,0,0,0-2.13,2,7.45,7.45,0,0,1-3.57,2.88,5.81,5.81,0,0,0-1.53,1.06c-.48.36-.94.76-1.68,1.36a19,19,0,0,1,1.83-6.08,10,10,0,0,1,3.68-4.73c0-.54,0-1,0-1.46s-.13-.75-.24-1.33c-1.13.66-1.88,1.55-2.83,2.15a30.49,30.49,0,0,1-3.38,1.59,7.51,7.51,0,0,1,2-2.58c.68-.75,1.4-1.46,2.07-2.23s1.25-1.56,1.9-2.37c-1.31-.56-1.6-.62-2.71-.2-2,.78-4.14,1.41-5.82,2.9a10.26,10.26,0,0,1-1.37.83c.84-1.66,2.24-2.6,2.52-4.38-1.68.14-3.05,1.18-5,1.4l1.74-2.3c.56-.75,1.11-1.5,1.68-2.24.14-.19.38-.32.46-.52a2.14,2.14,0,0,0,.18-1.07c-.09-.44-.54-.48-.94-.47a5.32,5.32,0,0,0-2.42.79,23.61,23.61,0,0,1-4.68,2c-.07-.21-.18-.38-.13-.45a7.39,7.39,0,0,1,1.4-1.83,90,90,0,0,0,7-6.18c.28-.25.54-.58,1.12-.38a9,9,0,0,1,0,2.45c-.08,1.56-.18,3.11-.23,4.67,0,1.25,0,1.25,1.2,2.47,1.19-1,2.38-1.88,2.53-3.6a4.5,4.5,0,0,1,.35-1.57,23.48,23.48,0,0,0,2.2-6.39,1.45,1.45,0,0,1,.68-1c.16,1.76.35,3.52.48,5.28.09,1.24,0,2.5.15,3.74a17,17,0,0,0,.45,2.75c.49,2,1.15,3.89,1.57,5.87.66,3.16,2.06,6,3.14,9a73.42,73.42,0,0,1,3.44,10.91,33.65,33.65,0,0,0,2,6.46c1.18,2.88,2.2,5.82,3.31,8.73a3.9,3.9,0,0,0,.73,1.17,12,12,0,0,0-.53-3.77q-2.87-8.53-5.66-17.09c-.39-1.18-.69-2.4-1-3.6a127.49,127.49,0,0,0-4.6-14.23,33.38,33.38,0,0,1-2.05-9.08c-.19-2-.32-4-.35-6.06a22.25,22.25,0,0,1,.41-6.69c-1-.39-1.5-.26-1.71.43a7.05,7.05,0,0,0-.21,1.15,29.06,29.06,0,0,1-2,7.43c-.65,1.58-1.19,3.21-1.77,4.82a25.07,25.07,0,0,1-1.26,2.74c-.28-.31-.45-.4-.45-.51-.08-3.43-.29-6.86.76-10.21a9.18,9.18,0,0,0,.39-2.07,20.56,20.56,0,0,1,1.71-7c.25-.56.33-1.06-.54-1.29a9.32,9.32,0,0,0-1.93,2.81,27.54,27.54,0,0,1-4.2,5.59c-.25.26-.56.47-1.09.91a11.67,11.67,0,0,1,0-1.19,23.77,23.77,0,0,1,2.05-6.92q1.33-2.86,2.51-5.79a4.61,4.61,0,0,0,.48-2.86,9.76,9.76,0,0,0-1.15.82c-1.52,1.46-3,2.92-4.51,4.42a49.18,49.18,0,0,1-6.18,5.53A8,8,0,0,1,239,174c.62-1.34,1.21-2.71,2-4,1.33-2.29,2.77-4.52,4.16-6.77.53-.86,1.19-1.68.68-2.95a3.29,3.29,0,0,0-.89.51,6.11,6.11,0,0,0-.74,1.18,67.42,67.42,0,0,1-5.19,8.33c-1.17,1.56-2.29,3.16-3.41,4.75a7.45,7.45,0,0,1-2.35,2.2c-.47-.35-.23-.72-.11-1a43.4,43.4,0,0,1,3.36-6.93c1.38-2.17,2.7-4.38,4-6.58a8.24,8.24,0,0,0,.45-1l-.08.08a3.21,3.21,0,0,0,.79-.42c1.18-1.14,2.32-2.3,3.49-3.45a4.31,4.31,0,0,0,1.32-2.57l-2-1.35a5,5,0,0,0-2,1.8c-.6.71-1.22,1.41-1.88,2.07-2.55,2.52-5.42,4.7-7.84,7.35a8.3,8.3,0,0,1-1.09.88c-1.23,1-2.45,1.93-3.71,2.85s-2.42,1.68-4,2.74a5.58,5.58,0,0,1,.27-1.4,15.3,15.3,0,0,1,1.42-2.12c1.34-1.62,2.74-3.19,4.12-4.77q2.38-2.73,4.78-5.45c.57-.64,1.16-1.26,1.7-1.93a2.42,2.42,0,0,0,.29-.74c-.47-.48-.85-.23-1.15,0-1.67,1-3.36,2-5,3.05-3.49,2.35-6.94,4.77-10.41,7.15a2.85,2.85,0,0,1-.6.24c-.32-.37,0-.57.13-.83,1.64-3,4.18-5.22,6.41-7.72a27.52,27.52,0,0,1,4.7-4.2,27.1,27.1,0,0,0,4.11-3.36c-.15-1-.81-1.2-1.45-1.48q-3.53-1.55-7.06-3.11c-2.71-1.21-5.51-2.15-8.31-3.12a72.28,72.28,0,0,1-6.78-3.12c-1-.46-2-1-3-1.35a21,21,0,0,1-7.94-5.21q-2-2.08-4.05-4.21a15,15,0,0,1-1.06-1.49c1.45,0,2.59,0,3.74-.05a18.84,18.84,0,0,1,6.85,1.12c3.72,1.39,7.53,2.54,11.33,3.68a17.94,17.94,0,0,1,4.69,2,24.1,24.1,0,0,0,7.69,3.3c.83.19,1.62.52,2.5.8.19.52.4,1,.56,1.52a10.21,10.21,0,0,0,3.63,5c1,.79,2,1.67,3.22,2.65-1.56.35-2.61-1-4-.65a11.48,11.48,0,0,0,7.74,6.6,54,54,0,0,0,6.66,1.23,3.86,3.86,0,0,1,2.31.7,10.65,10.65,0,0,1-.51.95c-1.26,1.87-2.61,3.7-3.78,5.63-.42.69-1.52,1.57-.52,2.44.82.71,1.57-.23,2.25-.69,1-.65,1.88-1.4,2.81-2.1l1.28-.94c-.55,1.33-.94,2.23-1.3,3.14a4.11,4.11,0,0,0-.19,2.94c1.3.75,1.42-.91,2.42-1.12,0,2.12-.31,4.22.51,6.21a.78.78,0,0,0,1.27-.44c.53-1.36,1-2.72,1.74-4.52.2.87.34,1.29.39,1.71.14,1.24.29,2.48.37,3.73a26.14,26.14,0,0,0,1.44,6.36c.58,1.78,1.21,3.55,1.66,5.36a35.79,35.79,0,0,1,.78,4.6c.39,3.33.63,6.68,1.07,10,.34,2.55.89,5.06,1.38,7.59.54,2.83,1,5.67,1.69,8.48.8,3.49,1.68,7,2.61,10.42s2,7,3,10.58a16.44,16.44,0,0,1,.58,3.69,4.51,4.51,0,0,0,1.24,2.93c.43.5.88,1,1.51,1.67a3.92,3.92,0,0,0-.94-2.36,3,3,0,0,1-.16-2.49c.33-.91.49-2,1.82-2.39a4.57,4.57,0,0,1,.34.76c.44,1.74.88,3.47,1.26,5.22.66,3,2.45,5.36,4.37,7.62a4.08,4.08,0,0,0,1.34.9,31.49,31.49,0,0,0,5.86,2.32,35.45,35.45,0,0,1,8,3.32,8.74,8.74,0,0,1,4.28,4,15.68,15.68,0,0,1-10.38-4.55c-.55.59-.45,1-.24,1.31a17.93,17.93,0,0,0,1.31,1.93,4.5,4.5,0,0,1,.88,4.16c-.3,1.28-.41,2.61-.59,3.93a1.13,1.13,0,0,0,.28,1.06c1-1.08,1-1.33,1.43-4.27a6.32,6.32,0,0,0-.58-4.48c.34-.53.59-.15.82,0a15.85,15.85,0,0,0,11.52,1.72A52.64,52.64,0,0,1,316.78,259q4.56-.09,9.12.1a12,12,0,0,0,4.6-.55,19.78,19.78,0,0,1,2.45-.76,10.45,10.45,0,0,0,6.41-4.7q.87-1.24,1.71-2.51a34.26,34.26,0,0,1,6-6.82,23.28,23.28,0,0,1,9-4.88c6.24-1.83,12.22-.77,18.06,1.52a15.43,15.43,0,0,1,5.43,3.57,55.53,55.53,0,0,1,6.65,7.84,13.22,13.22,0,0,1,2.31,7.24c0,.08,0,.16,0,.23A105.66,105.66,0,0,1,387,273.24a11.24,11.24,0,0,1-2.92,5.73c-1.28,1.35-2.39,2.86-3.86,4.17a13,13,0,0,1-3.35-2.89c-.89-1.09-1.69-2.24-2.51-3.38-1.06-1.48-2-1.69-3.57-.82-5,2.8-10,5.48-14.85,8.4-3.15,1.88-6.4,3.55-9.68,5.17-.7.34-1.4.67-2.13,1a2.25,2.25,0,0,1-1-3c.22-.5.37-1,.55-1.52-.88-.48-1.3-.46-1.48.15-.37,1.22-1.15,2.38-.46,3.84-1,0-1.86,0-2.7,0q-2.8.07-5.6.18a4.69,4.69,0,0,0-3.1,1.46,13.68,13.68,0,0,0-2.72,3.49,4.28,4.28,0,0,0-.12,1.32,5.55,5.55,0,0,0,.94-.7c.53-.67,1-1.37,1.52-2.07,1.27-1.79,2.88-2.83,5.34-2.3-.2.27-.32.57-.53.7a9,9,0,0,0-2.52,2.72q-3.65,5.3-7.32,10.57c-.08.11-.24.15-.39.24-.46-.24-.21-.67-.25-1a5,5,0,0,1,0-.93,14.29,14.29,0,0,0-.84-5.26c-.93-3.11-3-5.44-4.91-7.88a12.32,12.32,0,0,0-1.8-1.49,6.66,6.66,0,0,1-2.39-6.84,8.87,8.87,0,0,1,2.1-4.35,14.5,14.5,0,0,0,1.16-1.68c-.81-.95-1.15-1-1.68-.37-1.91,2.43-3.44,5-3.16,8.29a1.52,1.52,0,0,1-.16.49c-.79,0-.86-1.05-1.6-1.07-.12.08-.33.17-.33.24a3.49,3.49,0,0,0,.17,1.33,2.74,2.74,0,0,0,.94,1,29.21,29.21,0,0,1,4.84,4.73c1.12,1.19,2.24,2.4,3.41,3.53a8.2,8.2,0,0,1,1.63,2.25,15.32,15.32,0,0,1,1.66,8.14c-.26,3.89-.51,7.78-.77,11.67-.08,1.24-.17,2.48-.24,3.54a3.12,3.12,0,0,0,.25.38c2.89,2.76,5,6.16,7.57,9.19a11.47,11.47,0,0,1,2.58,6.38c.4,3.4-.31,6.68-.82,10-.63,4.08-1.38,8.15-2.07,12.22a6.93,6.93,0,0,0,0,1.13c.81.16.78-.44.85-.83.66-3.53,1.27-7.06,1.93-10.58.3-1.61.69-3.2,1.06-4.79a4.68,4.68,0,0,1,2.11-3c1-.68,1.9-1.67,3-2.24a24.57,24.57,0,0,1,3.53-1.19c2-.69,3.94-1.48,6-2.1A57.57,57.57,0,0,0,358.66,330a22.6,22.6,0,0,0,4-3.5,12.78,12.78,0,0,0,1-1.19c1.06.11,2.05.27,3,.29a4.14,4.14,0,0,0,2.67-.49c0-.45-.18-.63-.54-.62-1.09.05-2.17.14-3.26.18a2.84,2.84,0,0,1-2.58-1.31c-.57-.84-1.25-1.6-1.81-2.44a33.47,33.47,0,0,0-7.33-7.72c-.22-.59.39-.62.51-.93a1.41,1.41,0,0,0,.09-.89,2.32,2.32,0,0,0-2.44-1.75c-1.53,0-1.79.12-2.89,1.42-.67-.27-.74-.75-.41-1.31a2.27,2.27,0,0,1,1.53-1,9.93,9.93,0,0,1,3.95,0l-.07-.07c1.36.84,2.7,1.72,4.09,2.51a5,5,0,0,0,1.94.67c1.82.16,3.66.18,5.5.25a11.42,11.42,0,0,0,2.28.7c.22-.5,0-.77-.31-.78a20.21,20.21,0,0,0-2,.13,10.65,10.65,0,0,1-2.79-3.73l1.54-2.19c-.37-.52-.75-.42-1-.14-.54.54-1,1.15-1.6,1.81a9,9,0,0,1-1.47-.71,4.8,4.8,0,0,0-3.33-.79,28.62,28.62,0,0,0-6.43,1.16c-2.23.69-4.51,1.23-6.77,1.81a3.51,3.51,0,0,1-2.62-.05,2.75,2.75,0,0,1,.13-1.06,4,4,0,0,1,1.05-1.23,26,26,0,0,1,7.42-3.91c1.33-.42,2.67-.84,4-1.35a25.17,25.17,0,0,1,5.63-1.5,2.24,2.24,0,0,0,.46,0c3.19-1.2,6.45-.71,9.72-.52a2.63,2.63,0,0,1,2.31,1.31c1.05,1.73,2.13,3.45,3.09,5.23a64.24,64.24,0,0,1,4.52,10.26,11.12,11.12,0,0,1,.58,3.68,5.37,5.37,0,0,1-1.54,4,8.66,8.66,0,0,0-.62.75,15.26,15.26,0,0,0,.27,1.84,4.68,4.68,0,0,1-1.17,4.55c-1.81,2-3.54,4.17-5.53,6-5.43,5-11,9.89-16.47,14.92-3,2.81-6.15,5.52-9.43,8a56,56,0,0,1-5.33,3.8,35.66,35.66,0,0,0-10.15,8.52,3.56,3.56,0,0,1-.6.48,10.58,10.58,0,0,1-.93-.68,15.94,15.94,0,0,0-7-3.6c-1.74-.43-3.45-1-5.19-1.4a3.57,3.57,0,0,1-2.38-1.7c-1.61-2.66-3.5-5.16-4.52-8.16a12.19,12.19,0,0,0-1.4-2.42c-3.13-4.94-6.28-9.86-9.4-14.81-.87-1.38-1.73-2.79-2.48-4.24a26.18,26.18,0,0,1-1.62-3.86c-.86-2.67-1.63-5.37-2.41-8.06a38.82,38.82,0,0,1-1.54-8.74,8.08,8.08,0,0,0-2.48-5.8,35.32,35.32,0,0,1-3.35-4.2,11.23,11.23,0,0,1-2.28-6.74c0-1.71-.25-3.42-.39-5.13a2.48,2.48,0,0,0-.19-.58.64.64,0,0,0-1,.43,4.3,4.3,0,0,0-.05,1.39c.17,2.4.36,4.8.55,7.31a7.51,7.51,0,0,1-3-2.2c-.82-.83-1.48-1.81-2.23-2.71a9.19,9.19,0,0,1-2-6.08c0-.86-.06-1.71-.12-2.57,0-.13-.15-.25-.31-.51-.23.15-.6.27-.64.46a7.86,7.86,0,0,0-.3,2.07,12.7,12.7,0,0,0,4.68,10c1.58,1.28,3.18,2.52,4.75,3.8a5.59,5.59,0,0,1,1.28,1.33,37.85,37.85,0,0,0,4.88,6.55,2.52,2.52,0,0,1,.77,1.65,68.64,68.64,0,0,0,2.23,12.16A47.19,47.19,0,0,0,295.06,337a12.58,12.58,0,0,1,.54,1.29,1.69,1.69,0,0,1,0,.46c-.08.13-.13.32-.24.38-2.52,1.38-4.89,3.07-7.61,4.06a4.21,4.21,0,0,0-2,1.47c-1.12,1.49-2.34,2.91-3.52,4.36a6.42,6.42,0,0,0-1,1.25c-1.39,3.14-4,5.6-4.82,9-2.65-.4-5.17-.8-7.69-1.16a37.2,37.2,0,0,0-6.74-.56,29.18,29.18,0,0,1-4-.16,20.52,20.52,0,0,0-11.48,2.49c-4,2-7.93,4-11.88,6a14.18,14.18,0,0,0-2,1.25c-.17.12-.16.49-.32,1.06,1.44-.59,2.6-1,3.69-1.54,2-1,4.05-2,6-3.14a72.53,72.53,0,0,1,8-3.91,12,12,0,0,1,6.82-1,53.71,53.71,0,0,0,7.23.47A77,77,0,0,1,277.68,361c8,1.64,16,3.39,24,5.1,4.64,1,9.29,2,13.93,3A31.67,31.67,0,0,1,325.82,373a14.86,14.86,0,0,1,6.56,9.78,24.23,24.23,0,0,1-.21,8.38,5.15,5.15,0,0,1-.63,1.74c-1.1,1.79-2.2,3.59-3.44,5.29-3.3,4.54-6.69,9-10,13.54-.79,1.07-1.5,2.19-2.2,3.31-3.4,5.42-7.19,10.58-10.93,15.76a147.2,147.2,0,0,0-10.67,16.48c-1.69,3.16-3.2,6.42-4.77,9.64-1.33,2.73-2.68,5.45-3.95,8.22-.84,1.84-1.58,3.73-2.3,5.62a6.12,6.12,0,0,0-.28,1.83c0,.86.07,1.73,0,2.57a6,6,0,0,0,1.86,4.85c1.16,1.26,2.37,2.49,3.55,3.72q6.72,7,13.42,14a5.68,5.68,0,0,0,2.51,1.62,6.62,6.62,0,0,1,4,3.68c1,2,0,3.41-2.15,3.36-.23,0-.46,0-.77-.08-1.74,2.63-4.48,3.41-7.41,3.66a5.49,5.49,0,0,0-2.88.69,2,2,0,0,1-.65.25,1.11,1.11,0,0,1-1.36-.63,12.46,12.46,0,0,1-.57-1.53A14.62,14.62,0,0,1,292,507a5.18,5.18,0,0,0-2.44-3.53c-1.48-1-2.8-2.23-4.23-3.3a31.61,31.61,0,0,0-3.09-2.1c-2.69-1.57-5.43-3.07-8.14-4.61a5.65,5.65,0,0,0-2.43-.71,19.54,19.54,0,0,1-3.21-.55c-.9-.23-1.72-.67-2.66,0-.26.19-.9,0-1.32-.18a15,15,0,0,1-4.2-2.5,19.21,19.21,0,0,1-3.84-4.38,12.18,12.18,0,0,1-.88-1.9,1.86,1.86,0,0,1,.3-2c1.62-2.29,3.21-4.61,4.81-6.92q5.05-7.32,10.08-14.64a7,7,0,0,0,1-2.07c1.62-6,3.06-12.09,4.83-18.06a49.58,49.58,0,0,0,1.81-15c0-.7-.06-1.4-.08-2.1-.06-2.42-.18-4.84-1.52-7l7.24-14.36a4.27,4.27,0,0,0-1.23-.65,31,31,0,0,0-3.73-.29c-6.1,0-12.14-.79-18.2-1.29a134.11,134.11,0,0,0-16.82-.62c-.62,0-1.25,0-1.87.06-3.93.37-7.58-.73-11.1-2.28a14.08,14.08,0,0,0-3.79-1.11,11.65,11.65,0,0,1-3.76-1.22c-2.15-1.1-4.36-2.12-6.41-3.39a35.76,35.76,0,0,1-4-3.21c-2.83-2.37-4-5.68-5-9-.65-2.08-1.3-4.17-1.76-6.3s-.73-4.45-1.06-6.69c-.08-.54-.05-1.1-.16-1.63a15.6,15.6,0,0,1,.51-6.93,77,77,0,0,1,2.08-7.42c.75-2.12,1.83-4.13,2.76-6.18a45.53,45.53,0,0,1,3.63-6.27c1.12-1.69,2.15-3.44,3.31-5.1.84-1.21,1.84-2.32,2.76-3.47,3.65-4.57,7.32-9.12,10.95-13.71,6.68-8.44,13.42-16.84,20.67-24.8,1.73-1.89,3.75-3.52,5.66-5.24,1.74-1.57,3.51-3.09,5.25-4.65a92.23,92.23,0,0,1,7.78-6c.51-.37,1-.72,1.5-1.12a2.47,2.47,0,0,0-.27-4.12,2,2,0,0,0-2.58,0,13,13,0,0,1-2.26,1.06,12.31,12.31,0,0,1,.57-1.14,23.29,23.29,0,0,0,1.85-2.67c.67-1.33.43-1.78-1.14-2.86a39.66,39.66,0,0,1-6.34,6.42,2.33,2.33,0,0,1-.09-2.52,20.63,20.63,0,0,1,1.26-2c.86-1.31,1.66-2.65,1.41-4.32a6.16,6.16,0,0,0-.21-.73,2.25,2.25,0,0,0-2.23.94,23.48,23.48,0,0,0-1.65,2.27c-.69,1-1.35,2.08-2.17,3.34a16.76,16.76,0,0,1-1.12,5.9,34.25,34.25,0,0,1-1.72,3,.45.45,0,0,1-.41.14c-.19-.09-.46-.28-.47-.43a19.25,19.25,0,0,1,.46-5.8,47.73,47.73,0,0,0,1.28-7.83c0-.36,0-.72,0-1.49a6.79,6.79,0,0,0-.81.95c-.69,1.4-1.36,2.81-2,4.21-.77,1.62-1.5,3.26-2.32,4.85a11.49,11.49,0,0,1-3.32,3.68,5.15,5.15,0,0,1,.57-2.59,104.89,104.89,0,0,0,3.63-12.33,15.71,15.71,0,0,0,.3-2.31,1.93,1.93,0,0,0-.28-.88c-.05-.11-.25-.14-.51-.27-.26.55-.55,1.08-.78,1.64-.71,1.73-1.38,3.47-2.11,5.2a13.74,13.74,0,0,0-1.27,4,3.12,3.12,0,0,1-1.12,2.18,19.75,19.75,0,0,1-.41-6.48,15.85,15.85,0,0,1,2.43-6.76c1.48-2.47,2.94-5,4.38-7.46a2.86,2.86,0,0,0,.33-1.09c0-.1-.32-.34-.5-.35a.88.88,0,0,0-.59.31c-.75.89-1.51,1.78-2.2,2.72-1,1.38-2,2.78-3,4.21-.64,1-1.21,2-1.78,3a48.78,48.78,0,0,1-3,4.55c-.38-1.63,0-3.19,1.69-9.06a72,72,0,0,1,3.29-8.65,28.49,28.49,0,0,0-5.09,4.32c-1.61,1.56-3.1,3.23-5,5.2a6.63,6.63,0,0,1,.1-1.24,16,16,0,0,1,2.69-4.36c1.88-2.39,3.79-4.75,5.68-7.14.9-1.13,1-1.38.14-2.43-.61-.73-.27-1.65-.84-2.51a13.7,13.7,0,0,0-3.11,2.8c-.82,1.13-1.58,2.31-2.38,3.46q-1.53,2.21-3.07,4.41c-.17.24-.38.46-.59.7-.53-.35-.16-.71-.11-1,.42-2.53.92-5.06,1.25-7.6a10.39,10.39,0,0,1,1.12-3.29c.93-1.89,2-3.73,2.93-5.59a7.41,7.41,0,0,0,1.08-2.48c-.4-.45-.77-.4-1,0-.76,1-1.49,2-2.2,3-.94,1.37-5.85,7.28-7,8.39-.58-1.06-.67-1.4-.18-2.23a39,39,0,0,0,2.91-6.86,44.45,44.45,0,0,1,2.68-5.19c.43-.83.84-1.67,1.3-2.48a2.13,2.13,0,0,0-.07-2l-.08.06a2,2,0,0,0,1.78-.24c1-.59,2-1.19,2.95-1.84s1.86-1.35,2.88-2.1l.38.92.05-.09c-.08,0-.18,0-.23,0-2.54,2.31-3.35,5.32-3.46,8.59,0,.95.81,1.34,1.63.82,1-.67,2-1.42,3.11-2.07a9.2,9.2,0,0,1,2.55-1.39c-.2,1-.9,1.23-1.35,1.69A3.45,3.45,0,0,0,247,225c.76.77,1,.88,1.53.73a5.83,5.83,0,0,0,2.4-1.39c.24-.22.45-.67,1-.19-.57.65-1.11,1.3-1.68,1.92a14.94,14.94,0,0,0-4.16,8.69,2.05,2.05,0,0,0,.23,1.72,2.24,2.24,0,0,0,1.94-.71,7.59,7.59,0,0,0,2.43-2.73l.25-.18.94.14c0,.8-.71,1.17-1.15,1.66a12.69,12.69,0,0,0-2.75,6.1.93.93,0,0,0,.3.79,1.15,1.15,0,0,0,.86,0,4.61,4.61,0,0,0,.79-.5,30,30,0,0,0,5.85-5,11.43,11.43,0,0,0,2.7-3.76,5,5,0,0,1,1.54-2,10.06,10.06,0,0,0,2.34-2.15,4.74,4.74,0,0,1,1.14.1c.27.09.47.38.72.58,1.13-1.74,1.13-1.74.25-2.68-.66.7-1.7,1-2.07,2l-2.57,1c.65-2,.84-2.25,2.27-3.33a4.65,4.65,0,0,0,2-3c.07-.5-.05-.93-.83-1.1-1.2.72-2.53,1.52-3.86,2.3-.31.18-.66.47-1.15-.08.24-.47.46-1,.77-1.52.94-1.52,1.94-3,2.88-4.53a7.61,7.61,0,0,0,.77-1.67c.06-.18-.24-.47-.53-1-1.17,2.8-3.42,3.7-5.93,4.49a7.44,7.44,0,0,1,.24-2.87c.14-.6.24-1.21.35-1.81Zm10.35,18.24a3.44,3.44,0,0,0-2.41,1.22c-.83.71-1.59,1.49-2.42,2.2a2.38,2.38,0,0,1-2.16.79c.09-.63.14-1.24.26-1.83a14.5,14.5,0,0,1,.45-1.57c.19-.59.4-1.18.62-1.76s.9-.85.76-1.81a11,11,0,0,0-3.07,6.29c-.12.85-.24,1.69-.32,2.54,0,.27-.14.62.43.83a20.32,20.32,0,0,0,3-2.38c1.3-1.23,2.7-2.34,4-3.53a7.9,7.9,0,0,0,.84-1c1,0,1.19.22.84.92-.19.39-.79.66-.41,1.52.49-.75.9-1.29,1.22-1.88a1,1,0,0,0-.08-1.28c-.56-.48-1,.05-1.38.36C267.13,233,267.13,233.21,267.08,233.35Zm-3.72,6.57c-1.36.55-1.71,1.9-2.33,3-.32.59-.61,1.33,0,1.94s1.18.31,2.07-.4q1.64-1.3,3.34-2.53a.64.64,0,0,1,1.06.21c-.59.92-1.19,1.91-1.84,2.87a10.42,10.42,0,0,0-1.7,4.3,2.3,2.3,0,0,0,1,2.65,3.74,3.74,0,0,0,2.46-1.63c1.15-1.27,2.26-2.57,3.42-3.83a7.11,7.11,0,0,1,1-.77,4.78,4.78,0,0,1-.54,2c-.66,1.4-1.36,2.79-2,4.2a6,6,0,0,0-.48,1.55c0,.26.11.73.29.81a1.29,1.29,0,0,0,1.08,0,4.42,4.42,0,0,0,1-1.28c.3-.52.41-1.18,1.1-1.37l0,0a12.94,12.94,0,0,1-.55,4.37,17,17,0,0,0-.31,1.83.78.78,0,0,0,.74,1,5,5,0,0,0,1.95-2.24,13.15,13.15,0,0,1,1-1.82,3.74,3.74,0,0,0,.91-2.78c0-.75-.11-1.57.53-2.11,1,.77,2,1.53,3,2.27,1.44,1.07,2.9,2.11,4.33,3.19a5.41,5.41,0,0,1,2,2.55,6.57,6.57,0,0,0,1.19,2,3.78,3.78,0,0,1,.9,2.56c0,2.65.2,5.29.34,7.93,0,.16.17.32.3.54a1.58,1.58,0,0,0,.61-1.53q0-3.16,0-6.32a6.16,6.16,0,0,0-1.23-3.46,11.7,11.7,0,0,1-1.33-2.17,7.78,7.78,0,0,0-2.36-3.14,21.77,21.77,0,0,0-3-2.15,11.93,11.93,0,0,1-4.21-4,7.83,7.83,0,0,0-.89-.93c-.38,2-.72,3.79-1,5.55a3.93,3.93,0,0,1-2.25,3.21,2.47,2.47,0,0,1-.06-.7c.44-2.05.91-4.1,1.37-6.15.12-.53.32-1,.39-1.58.05-.37,0-.78-.6-.8-1.16,1.27-1.5,3.12-3,4.54.28-2.54,1.82-4.34,2.4-6.71a4.24,4.24,0,0,0-1.25.14,4.86,4.86,0,0,0-1.33.93c-1.42,1.44-2.8,2.92-4.19,4.39-.35.37-.72.72-1.18,1.16-.19-.36-.4-.57-.36-.74.45-2.36.78-4.75,2.34-6.74,1-1.29,1.87-2.69,2.79-4,.23-.34.38-.68.05-1-.15,0-.33,0-.44,0-.46.29-.9.61-1.34.94a16.2,16.2,0,0,1-1.66,1.29,21.28,21.28,0,0,0-3.7,2.42c-.27.24-.62.51-1,0l1.32-3.43c.5-.37.5-.37.35-.92Zm34.94,29.18c-.25-.62-.64-.7-1-.45a8.43,8.43,0,0,0-1.41,1.21,29.48,29.48,0,0,0-6.35,10.5,22.87,22.87,0,0,0-.36,13.32c.12.49.26,1.09,1.12,1.1a2.22,2.22,0,0,0,.31-.76,7.77,7.77,0,0,0-.15-1.62,26.18,26.18,0,0,1,0-9.5,17.58,17.58,0,0,1,3.43-8.3C295.3,272.77,296.78,271,298.29,269.1Zm55-7.58c-.94.79-1.91,1.55-2.82,2.38a45,45,0,0,0-6.5,6.67,10.85,10.85,0,0,0-1.31,2.19,3.62,3.62,0,0,0,1.73,4.35c.65.3,1.21.2,1.42-.27s-.11-.91-.52-1.14c-1.34-.74-1.24-1.9-.82-3a8.45,8.45,0,0,1,1.32-2.18,29.22,29.22,0,0,1,2.45-2.81c1.26-1.26,2.6-2.44,3.93-3.63a4.18,4.18,0,0,1,1-.49c1.25,1.45.65,3.26,1.21,4.71.66.24,1-.09,1.05-.59a30.9,30.9,0,0,0-.13-3.7A2.88,2.88,0,0,0,353.27,261.51ZM303,273.66c.2-.6.42-1.25.63-1.89a24.12,24.12,0,0,1,4.09-7.55,6.48,6.48,0,0,1,4.09-2.5c1-.17,2-.22,3-.33.39,0,.79-.08.78-.62-.11-.1-.21-.27-.32-.28-3.52-.36-6.65.25-8.86,3.41a38.19,38.19,0,0,0-3.9,6.9,6.73,6.73,0,0,0-.49,2C302,273.28,302.24,273.72,303,273.66Zm-23-14.84-.48.06c.15.66.26,1.33.46,2a20.33,20.33,0,0,1,.77,4.82,5.57,5.57,0,0,1-.86,3.56c-.86,1.29-1.67,2.62-2.6,3.86a26.81,26.81,0,0,0-3.09,5.46c-.16.37-.14.38.24,1.51.31-.67.61-1.2.82-1.76a18.27,18.27,0,0,1,3.12-5.16,31.39,31.39,0,0,0,2.84-4.52,5.43,5.43,0,0,0,.6-3.39A24.07,24.07,0,0,0,280,258.83Z"/><path class="cls-1" d="M184.88,491a3.27,3.27,0,0,1,2.46-1.54,29.37,29.37,0,0,1,3.66-.75,21.45,21.45,0,0,0,8.22-3.19c2.75-1.62,5.66-3,8.15-5a8.72,8.72,0,0,1,2.47-1.29,1.83,1.83,0,0,0,1.27-1.53,9.09,9.09,0,0,0,0-3c-.54-2.43-1.23-4.83-1.92-7.23a6.32,6.32,0,0,0-1-2.09,22.88,22.88,0,0,1-3-5.79c-1.08-2.75-2-5.56-3-8.37-.54-1.65-1.06-3.26-2.52-4.38-.52-.4-1-1.11-.65-1.63.62-1-.11-2,.08-2.91a8.58,8.58,0,0,0-.08-2.76,4.12,4.12,0,0,0-.9-2.36c-1.4-1.62-1.9-3.72-2.94-5.53a3.11,3.11,0,0,1-.26-1.35c0-.78,0-1.56,0-2.37-.43-.5-.83-1-1.24-1.43a4.93,4.93,0,0,1-.84-5.45c.47-1.23,1-2.45,1.52-3.78-.8-1.36-1.51-2.74-2.39-4a12.41,12.41,0,0,1-1.48-3.16,3.55,3.55,0,0,1-.18-1.37c.09-1.16.23-2.33.41-3.48a2.93,2.93,0,0,1,1.51-2.22c2.09-1.21,4.1-2.55,6.15-3.84a5.3,5.3,0,0,1,3.48-1.14,2.62,2.62,0,0,0,1.92-.71c.25-.19.47-.4.71-.61a5.09,5.09,0,0,1,4.08-1.4,3.18,3.18,0,0,0,2.74-1q1.11-1,2.25-2c.34-.3.72-.56,1.12-.87l4.82,2.48a19.22,19.22,0,0,0,7,2.48,8.88,8.88,0,0,1,2,.62c1.76.62,3.5,1.3,5.28,1.86a13.81,13.81,0,0,0,4.84.66c2-.09,4.06,0,6.08-.12a90.9,90.9,0,0,1,11,.43c6.6.55,13.22,1,19.83,1.44,1.09.08,2.18.05,3.27.11a4.27,4.27,0,0,1,1.13.23,3.08,3.08,0,0,1,.67.52L275,415.58c2.18,6.89,1.86,13.78.37,20.61-1,4.71-2.53,9.32-3.8,14-.57,2.1-1.06,4.23-1.64,6.33a5.57,5.57,0,0,1-.78,1.66q-6.79,9.81-13.61,19.59c-.53.77-1,1.59-1.59,2.31a2.32,2.32,0,0,0-.31,2.62c2.33,5.06,5.42,9.32,11.32,10.55.36.08.9.21,1.09,0,.82-.78,1.6-.34,2.4-.07.43.15.84.37,1.29.57a3.62,3.62,0,0,1-.4.65c-.52.52-1,1.11-.67,1.86a3,3,0,0,0,1.64,1.89c.64.25,1.39.25,1.85,1a4.41,4.41,0,0,1-2.5.4,11.66,11.66,0,0,0-4.13.53,5.39,5.39,0,0,1-2.53.12c-5.32-.76-10.64-1.57-16-2.39a4.09,4.09,0,0,1-1.76-.57,3.33,3.33,0,0,0-3.93-.13,7,7,0,0,1-.66.28,3.33,3.33,0,0,1-.66-.17,2.81,2.81,0,0,0-2.89.15,5.6,5.6,0,0,1-4.73.47c-1-.27-1.95-.42-3-.64a1.86,1.86,0,0,1,.37-2q1-1.18,1.93-2.35a7.64,7.64,0,0,0,1.61-2.8,6.12,6.12,0,0,1,1.09-1.77c.51-.69,1.06-1.35,1.64-2a2.12,2.12,0,0,0,.47-2.29,32.09,32.09,0,0,0-4.08-.18c-1.32-.12-2.63-.29-4-.44s-2.79-.34-4.18-.47-2.58-.66-4-.34a3.42,3.42,0,0,0-.43.5,5.7,5.7,0,0,1-3.81,2.78,28.48,28.48,0,0,0-8.11,3.54,3.94,3.94,0,0,0-1.13.82c-.94,1.24-2.17,1.37-3.73,1.08L201,488.61c-2.13,0-4.22,0-6.32,0a3.49,3.49,0,0,0-1.11.31c-.51.19-1,.4-1.51.63a12.44,12.44,0,0,1-6.32,1.37,5.94,5.94,0,0,0-.93.08Z"/><path class="cls-1" d="M166.31,195.44a9.29,9.29,0,0,1,.66-1c2.37-2.59,4.7-5.21,7.15-7.73,1.3-1.34,2.79-2.5,4.22-3.7,5.32-4.48,11.11-8.31,16.82-12.25.77-.53,1.56-1,2.31-1.59.43-.31.79-.71,1.44-1.3-.58-.06-.86-.17-1.07-.09a16.81,16.81,0,0,0-1.93.83c-4.86,2.47-9.73,4.92-14.57,7.43-2.49,1.29-4.89,2.74-7.37,4.06a57,57,0,0,1-11.42,4.74,9.8,9.8,0,0,1-1.84.32,17.11,17.11,0,0,0-6.87,2.15,7.78,7.78,0,0,1-4.45,1.11,21.69,21.69,0,0,0-3.73.39,5.91,5.91,0,0,1,.79-1.09,58,58,0,0,1,4.63-3.54c4-2.56,8.09-5,12.13-7.49,1.26-.78,2.56-1.5,3.76-2.37a94.6,94.6,0,0,1,13.61-7.72c2.09-1,4.34-1.73,6.51-2.61q2.38-1,4.72-2a2,2,0,0,0,1.35-1.36,2.31,2.31,0,0,0-.79-.27,6.67,6.67,0,0,0-1.6.25c-8.79,2.69-17.51,5.62-26.08,9a25.56,25.56,0,0,0-6.35,3.43,18.87,18.87,0,0,1-3.7,1.95,4.07,4.07,0,0,1-3.84-.05c-2.26-1.32-4.61-1.21-7-.76-.22,0-.46,0-1,.07.6-.41.92-.67,1.29-.86,6.26-3.35,12.86-6,19.29-9,7.43-3.44,15.11-6.28,22.64-9.49,4.29-1.83,8.4-4.1,12.58-6.19a2.14,2.14,0,0,0,1.4-1.48c-.77-.22-1.27.26-1.77.55a127.18,127.18,0,0,1-12.41,6c-1,.43-2,.84-3,1.21a16.37,16.37,0,0,1-6.89,1c-2.18-.17-4.35-.38-6.53-.44-3.27-.09-6.55-.12-9.82-.06a20.44,20.44,0,0,1-9.31-1.74c-1.31-.62-2.7-1.07-4.36-1.72a26.44,26.44,0,0,1,7-1q4.79-.05,9.59,0a44.82,44.82,0,0,0,9-1c2-.39,4-.66,6.23-1a16.26,16.26,0,0,0-4.27-1.11c-1.44-.36-2.89-.66-4.34-.92s-3.08-.47-4.63-.67-2.94-.36-4.41-.5-3-.26-4.43-.35-2.93-.12-4.39-.17a4.2,4.2,0,0,1,0-.56c.15-1.51,0-1.71-1.38-1.54a19,19,0,0,1-10.94-1.59c-1.75-.85-3.55-1.61-5.3-2.46a3.35,3.35,0,0,1-1.63-1.18,8.7,8.7,0,0,1,1-.08c1.24.08,2.5.09,3.73.28,2.15.34,4.3.74,6.42,1.23a20.78,20.78,0,0,0,9.73-.25,32.66,32.66,0,0,1,3.66-.74,17.9,17.9,0,0,1,3,0c1.71.08,3.41.28,5.12.33,4.13.11,8.25-.15,12.37-.42,1.32-.08,2.65.09,4,.12.44,0,.87-.06,1.28-.09a.71.71,0,0,0-.66-.91c-1.69-.31-3.37-.65-5.06-.93-4.46-.74-8.93-1.43-13.38-2.17a146.82,146.82,0,0,1-17.63-4.59c-2.61-.78-5.17-1.74-7.74-2.64a10.76,10.76,0,0,1-4.45-3.32,9.7,9.7,0,0,1-1-1.29,6.57,6.57,0,0,0-4.74-3.45c-.1,0-.17-.23-.26-.36.21-.62.73-.43,1.14-.37,2.31.35,4.62.72,6.93,1.08,6,1,12,2,18,2.85,3.24.48,6.5.77,9.76,1.12q7.79.83,15.59,1.61c4.27.43,8.54.87,12.81,1.23a3.62,3.62,0,0,1,2.92,1.52,49.15,49.15,0,0,0,8.84,8.65,17.59,17.59,0,0,0,3.43,2c3.8,1.8,7.59,3.65,11.47,5.27a75.18,75.18,0,0,0,8,2.62,37.49,37.49,0,0,1,6.84,2.68c.17.62-.26.79-.53,1-2.41,2.1-4.86,4.16-7.23,6.3a49.92,49.92,0,0,0-6.9,7.93,14,14,0,0,0-1.43,2.66.78.78,0,0,0,1,1,7.76,7.76,0,0,0,1.67-.79,36.26,36.26,0,0,0,5.43-4c1.92-1.73,4.31-2.68,6.48-4.1.28.76-.15,1.06-.42,1.38-2,2.38-4.06,4.73-6.07,7.12-.85,1-1.64,2.08-2.4,3.16s-.9,2.16.36,3.13c-1,1.29-2,2.52-3,3.72-2.82,3.44-5.66,6.86-8.46,10.31-.79,1-1.47,2-2.25,3-1.65,2.08-3.32,4.13-5,6.19-.88,1.09-1.85,2.13-2.62,3.3-2.5,3.76-5.06,7.5-7.35,11.39a26.7,26.7,0,0,1-5.61,7.35,54.13,54.13,0,0,0-4.34,4.58c-.31.33-.66.63-1,1-.06-.24-.17-.41-.12-.53a42.08,42.08,0,0,1,3.91-8.47,215.67,215.67,0,0,0,11.36-20.16,44.36,44.36,0,0,1,7.24-10.58q6.58-7.14,13.11-14.32a4.61,4.61,0,0,0,.7-.92c.08-.15,0-.41-.1-.81a7.15,7.15,0,0,0-1.23.72c-1.49,1.37-2.94,2.79-4.43,4.17q-2.92,2.69-5.9,5.34a7.74,7.74,0,0,1-1.48,1.14c-2.56,1.35-4.34,3.55-6.16,5.66-2.65,3.07-5.19,6.23-7.8,9.34-.9,1.07-1.83,2.13-2.8,3.14-4.38,4.55-8.69,9.17-13.47,13.32a39,39,0,0,1-8.09,5.53c-.48.24-1,.44-1.46.64-.47-.37-.23-.74-.07-1.06,1-2,1.81-4,2.94-5.83a209.44,209.44,0,0,1,15.19-21.9c1.9-2.37,4-4.58,6.06-6.82a115.29,115.29,0,0,1,8-8.51c2.39-2.12,4.77-4.25,7.16-6.38a109.57,109.57,0,0,0,9.41-8.77,16.14,16.14,0,0,0,1.13-1.48c.07-.09,0-.28,0-.43-.19,0-.46-.05-.56.05-2.22,2.19-4.41,4.41-6.62,6.61a9.1,9.1,0,0,1-1,.93,150.54,150.54,0,0,0-11.74,10c-3.71,3.34-7.17,7-11.17,10-1.18.89-2.36,1.79-3.61,2.6-3.21,2.08-6.42,4.14-9.68,6.13-1.46.89-3,1.62-4.55,2.39A5.88,5.88,0,0,1,166.31,195.44Z"/><path class="cls-1" d="M122.41,43.56c.35-.65.8-.95,1.35-.5,1,.83,2,1.73,3,2.61,3.89,3.49,7.76,7,11.66,10.48,1.16,1,2.39,2,3.62,3q12.45,9.72,24.9,19.43c1.78,1.39,3.47,2.91,5.26,4.29,3.33,2.58,6.7,5.1,10,7.65q6.33,4.81,12.66,9.63c3.72,2.84,7.4,5.73,11.13,8.55a6.77,6.77,0,0,1,2.14,2.42c.55,1.12,1.18,2.19,1.79,3.29a10.34,10.34,0,0,0,2.33,2.89c2.89,2.49,5.74,5,8.6,7.58.28.25.53.53,1.1,1.12-2.4-.39-4.2-1.31-6.13-1.72s-3.63-1.27-5.82-1.57c.93,2.88,3.14,4.34,5,6.36a3,3,0,0,1-1.85-.23c-2.81-.92-5.6-1.93-8.43-2.78a20.75,20.75,0,0,0-4.34-.82c-3.11-.24-6.23-.43-9.35-.45a122.92,122.92,0,0,1-14.2-1.25c-3.72-.45-7.44-.81-11.16-1.19-3.26-.33-6.52-.6-9.78-1a6.31,6.31,0,0,1-2.18-.75c-3.09-1.65-6.21-3.27-9.22-5.07a62.16,62.16,0,0,0-11.16-5.34,8.18,8.18,0,0,1-4.12-2.9c-1.1-1.51-2.39-2.88-3.6-4.31a5.42,5.42,0,0,0-2.45-1.7c-1.77-.6-3.51-1.3-5.25-2a12.34,12.34,0,0,1-2.45-1.11c0-.53.21-.7.56-.66a5.92,5.92,0,0,1,1.14.23c11,3.31,22,6.43,32.87,10,11.71,3.8,23.49,7.35,35.25,11l14.05,4.38c.66.2,1.32.39,2.08.61-.31-1.07-1.1-1.28-1.87-1.53-2.07-.68-4.13-1.4-6.21-2.05L163,110.67a11.06,11.06,0,0,1-1.94-.78c-6.17-3.33-12.36-6.64-18.5-10a50.61,50.61,0,0,1-10.44-7.46,22.41,22.41,0,0,1-4.45-6,43.69,43.69,0,0,0-2.2-3.84c-1.5-2.28-3.11-4.49-4.61-6.76a4.83,4.83,0,0,0-2.1-1.78c-1.13-.52-2.15-1.2-3.36-1.85a1,1,0,0,1,1.33-.23,36.16,36.16,0,0,1,6.95,3.3c7,4.19,14.14,8.25,21.2,12.38,4.64,2.72,9.21,5.56,13.88,8.23,4.26,2.43,8.62,4.7,12.94,7,5.83,3.17,11.29,6.93,16.81,10.58a108.74,108.74,0,0,0,15.41,8.81,28.62,28.62,0,0,0,5.31,2.22c-.18-.73-.72-.88-1.12-1.11-3.27-1.82-6.59-3.54-9.82-5.44-4.36-2.57-8.65-5.27-13-7.93-5.11-3.14-10.21-6.31-15.34-9.44a74,74,0,0,1-10.09-8c-1.76-1.54-3.47-3.14-5.19-4.73a74.68,74.68,0,0,1-5.66-5.9c-2.35-2.7-4.87-5.26-7.38-7.83a23.59,23.59,0,0,1-3.47-4.68,124.39,124.39,0,0,1-8.36-17.75,8.82,8.82,0,0,0-2.51-3.58C125.65,46.69,124,45.09,122.41,43.56Z"/><path class="cls-1" d="M287.54,464.36a16,16,0,0,1,.64-1.52c1.42-2.6,2.88-5.17,4.3-7.77a9.62,9.62,0,0,0,.73-1.71,25.65,25.65,0,0,1,2.92-6.1c2.52-3.94,5.12-7.83,7.5-11.85s5.22-7.75,8-11.55c4.27-6,8.37-12,12.61-18,1.71-2.41,3.64-4.67,5.41-7,1-1.37,2-2.81,2.91-4.24.43-.64.78-1.33,1.16-2a7.54,7.54,0,0,1,1.69,0c2.34.58,4.21-.29,6.1-1.77a1.27,1.27,0,0,0-1.58.09,5.66,5.66,0,0,1-3.84.63,6.43,6.43,0,0,1-1.12-.3,7.94,7.94,0,0,1-.92-.5c.07-.7.09-1.39.22-2.06a17.85,17.85,0,0,0-.57-9,7.71,7.71,0,0,0-1.41-2.66,26,26,0,0,1-1.52-2.2,19.55,19.55,0,0,1,7.76-7.9c1,1.36,2.46,1.43,3.94,1.21a25.86,25.86,0,0,1,9.28.55,14.44,14.44,0,0,1,8.07,4.88,4.67,4.67,0,0,1-2.1,1.85,3.71,3.71,0,0,0-1.92,3.24c0,.78-.18,1.55-.27,2.32a22.77,22.77,0,0,1-2.7,8.64,2.77,2.77,0,0,0,.6,3.75l.16.17c1.69,1.75,3.78,1.61,5.11-.41,1.15-1.76,2.24-3.56,3.3-5.38.63-1.08,1.16-2.13,2.53-2.57.75-.24,1.32-1,2-1.63l2.17,2.37a2.61,2.61,0,0,1-.47,2.24,38.64,38.64,0,0,1-2.52,3.92c-2.18,2.84-4.45,5.62-6.7,8.41a10.79,10.79,0,0,1-1.39,1.57,6,6,0,0,0-2.07,3.56,2.48,2.48,0,0,1-1.54,1.89c-4,1.82-7.36,4.64-10.76,7.38-3.58,2.88-7.28,5.62-10.85,8.52-2.84,2.3-5.61,4.71-8.35,7.14-2.91,2.59-5.71,5.31-8.62,7.9a41.2,41.2,0,0,0-6.8,8.3c-.9,1.37-1.68,2.8-2.55,4.19a4.58,4.58,0,0,0,.22,5.66,34.23,34.23,0,0,1,4.47,8.43c.78,2,1.69,3.86,2.43,5.82a12.21,12.21,0,0,1,.74,3.17,3.85,3.85,0,0,0,2.83,3.59c1.54.54,3,1.27,4.56,1.82a3,3,0,0,1,2.21,2.71,2.22,2.22,0,0,0,1.81,2.13,4.46,4.46,0,0,1,.67.21,1.6,1.6,0,0,1,.88,1.75,4.49,4.49,0,0,1-2.94,3.06,2.74,2.74,0,0,1-1.14-.13,18,18,0,0,1-5.65-2.15,2.58,2.58,0,0,0-2.88-.17,4.56,4.56,0,0,1-3.38.44,16.81,16.81,0,0,1-7.08-2.87,2.9,2.9,0,0,1-.92-1,11.54,11.54,0,0,1-1.67-4.57,4.27,4.27,0,0,0-1.63-3c-3.47-3.25-6.91-6.54-10.36-9.82C288.66,465.54,288.13,465,287.54,464.36Z"/><path class="cls-1" d="M240.94,161.63a3.44,3.44,0,0,0-.92.58,48.91,48.91,0,0,0-5.62,8,28.33,28.33,0,0,0-2.89,8.6,4.92,4.92,0,0,0,0,.83,1.28,1.28,0,0,0,1.61-.12A12.45,12.45,0,0,0,236,176.5c.42-.54.77-1.14,1.24-1.86.53.53.31,1.11.45,1.57a1,1,0,0,0,1.27.7,8.23,8.23,0,0,0,1.79-1.07,28.42,28.42,0,0,0,2.17-2.13c1.51-1.57,3-3.17,4.5-4.74.13-.14.37-.17.79-.35-.81,2.57-1.79,4.83-2.64,7.15-.54,1.46-1,3-1.44,4.44a4.36,4.36,0,0,0,.7,3.84c2.69-1.78,3.89-4.83,6.15-7.2a3,3,0,0,1,.16.81c-.27,1.46-.65,2.9-.81,4.36a4.36,4.36,0,0,1-1.71,2.93c-2,1.74-3.95,3.54-6,5.27a33,33,0,0,0-4.56,5.24c.6,1.33.6,1.31,1.65,1.11a13.19,13.19,0,0,0,3.67-1.48c.74-.39,1.49-.75,2.29-1.14.22.63-.2.81-.39,1.08a7.8,7.8,0,0,1-.63.69,14.48,14.48,0,0,0-3.09,4.35,6.54,6.54,0,0,1-1.28,1.63,1.7,1.7,0,0,1-.37.28,23.45,23.45,0,0,0-6.86,6.92,10.62,10.62,0,0,1-3,2.95c-.89.63-1.75,1.31-2.68,1.88a41.56,41.56,0,0,0-7.65,6.48c-2,2-4.06,4.11-6.09,6.16a12.56,12.56,0,0,1-1.51,1.46q-5.42,3.87-10.89,7.68a4.35,4.35,0,0,1-1.74.6c.26-.6.38-.94.55-1.24a47.19,47.19,0,0,1,7.13-9.23c3.16-3.23,6.21-6.58,9.28-9.9,2.28-2.46,4.5-5,6.75-7.46a10.58,10.58,0,0,0,2.07-2.87,2.88,2.88,0,0,0-2.58,1.12c-2.11,2.08-4.22,4.16-6.36,6.22-.84.81-1.74,1.56-2.6,2.36-1.66,1.53-3.34,3-4.95,4.63-2.11,2.08-4.09,4.29-6.24,6.34a37.93,37.93,0,0,1-7.12,5.28c-1.34.78-2.63,1.66-4,2.47-.3.18-.57.59-1.14.26.64-1,1.24-1.94,1.92-2.85A98,98,0,0,1,206.77,216c2.58-2.26,5.12-4.56,7.7-6.82.82-.72,1.73-1.33,2.56-2a8.72,8.72,0,0,0,1.09-1.19c.06-.07,0-.31-.08-.42a.5.5,0,0,0-.39-.2,2.54,2.54,0,0,0-1.06.39,50.07,50.07,0,0,1-6.4,4.29,33.24,33.24,0,0,1-5.89,3.34,17.91,17.91,0,0,0-2,1.18c-.59.32-1.21.59-2.08,1a2.72,2.72,0,0,1,1.15-1.65c5.69-4.64,10.84-9.86,16.17-14.89,2.27-2.14,4.55-4.27,6.89-6.33a43.47,43.47,0,0,0,4.5-4.75,1.77,1.77,0,0,0,.2-.61c-.44-.44-.74-.11-1,.14-2.89,2.73-5.81,5.44-8.66,8.21-6.27,6.08-12.53,12.18-19.16,17.88-.94.81-1.94,1.56-3,2.29a6.55,6.55,0,0,0-1.76,1.83,10.86,10.86,0,0,1-3.77,3.12,14.5,14.5,0,0,1,.63-2.31A40.39,40.39,0,0,1,198,208.21a15.19,15.19,0,0,0,1.32-1.93,54.9,54.9,0,0,1,6.64-9c3.79-4.46,7.38-9.08,11-13.69,2.26-2.89,4.41-5.85,6.55-8.83a14.84,14.84,0,0,1,3.12-3.13c1.61-1.23,3.15-2.54,4.72-3.82.18-.15.34-.33.53-.46,4-3,7-7.06,10.76-10.37a5.07,5.07,0,0,1,1.77-1.37c.49.28.28.6.12.81-.92,1.26-1.88,2.48-2.81,3.74-.36.48-.92.87-.85,1.58Z"/><path class="cls-1" d="M201.86,98.78c-1,.27-1.27,1-1.51,1.85,1.31,1.78,3.9,2.5,4.67,5.12a5,5,0,0,1-2.37-1.22c-3.77-2.89-7.52-5.83-11.32-8.69s-7.77-5.75-11.68-8.59c-6.13-4.44-12-9.19-17.82-14a70,70,0,0,1-5.42-5.48c-6.57-6.88-13.12-13.79-19.71-20.64a11.25,11.25,0,0,1-2.54-4.14,13,13,0,0,1-.51-1.55c-.9-4.2-2.59-8.17-3.69-12.31a9.93,9.93,0,0,0-3-5.14c-1-.87-1.92-1.83-2.85-2.77a6.46,6.46,0,0,1-1-1.28,1.16,1.16,0,0,1,0-.88c.09-.25.39-.42.66-.69a20.92,20.92,0,0,1,3.38,3c2.35,2.29,4.58,4.69,6.94,7,3.15,3,6.37,6,9.59,8.93,3.74,3.43,7.53,6.79,11.25,10.24C156,48.44,157,49.67,158,50.8s2.1,2.32,3.23,3.38q9,8.5,18.11,16.95c3.82,3.57,7.62,7.15,11.49,10.66,3.23,2.93,6.52,5.81,9.84,8.65,5.86,5,11.76,10,17.65,15a3.55,3.55,0,0,0,.36.3c2.87,1.84,4.45,4.69,6.07,7.55a55.05,55.05,0,0,0,3.16,4.63c.88,1.24,1.81,2.45,2.95,4a4.63,4.63,0,0,1-1.78-1.26c-3.08-2.75-6.12-5.56-9.25-8.25-2-1.72-4.15-3.3-6.25-4.91-3.15-2.42-6.33-4.81-9.49-7.22A9.05,9.05,0,0,0,201.86,98.78Z"/><path class="cls-1" d="M363.71,63.84c-.44,1.13-.65,1.78-.93,2.39-3.35,7.47-6.31,15.1-9.19,22.75-3.21,8.53-6.42,17.06-9.5,25.64a145,145,0,0,0-4.35,15.52,3.52,3.52,0,0,0,0,2c.57-.28.63-.77.79-1.19,1-2.62,1.87-5.3,3-7.87a46.45,46.45,0,0,1,3.37-6.67,33.78,33.78,0,0,0,4.46-11,6,6,0,0,1,.69-1.7,99.41,99.41,0,0,1-.92,12.26q-.59,3.46-1.25,6.9a11.53,11.53,0,0,0-.11,4,4.57,4.57,0,0,1-.69,3.53,10.5,10.5,0,0,0-1.3,3c-1.35,4.56-2.61,9.14-3.95,13.7a5.13,5.13,0,0,0,0,3.47c-2.8,4.74-5.3,9.64-8.25,14.33a9.41,9.41,0,0,1,0-1.31c.53-3.78,1.24-7.54,1.59-11.34a86,86,0,0,1,1.47-9.7,4.93,4.93,0,0,0-.58-4,1.89,1.89,0,0,0-1.28,1.25,49,49,0,0,0-3.82,9.28,64.75,64.75,0,0,0-1.27,8.07,68.7,68.7,0,0,1-1.63,9.47,4.51,4.51,0,0,1-.55-1c-.35-2-.71-4-.95-6a32.93,32.93,0,0,1-.13-3.74,7.08,7.08,0,0,0-.6-3.18,4.59,4.59,0,0,1-.39-1.56,193.24,193.24,0,0,1-.94-22c.06-3,0-6.09.14-9.12a225.23,225.23,0,0,1,2-22.82c.23-1.46.43-2.93.61-4.4a8.84,8.84,0,0,1,1.63-4.08c2.26-3.17,2.58-3,2.76-8.43q.14-4.21.44-8.41a17.48,17.48,0,0,1,.64-2.95c0-.17.29-.3.62-.61,0,.65.09,1.08.09,1.51,0,3.82,0,7.64-.12,11.46a69.22,69.22,0,0,0,.75,10c.16,1.39.3,2.79.33,4.19.06,3,0,6.08.05,9.12a81.23,81.23,0,0,0,.75,12.59c.48,3,.59,6,.86,9.06.41,0,.47-.47.55-.83a122.5,122.5,0,0,0,2.84-14.68c.62-6.13,1.66-12.2,2.43-18.3a24.45,24.45,0,0,1,7.69-14.86c2.25-2.16,4.49-4.33,6.69-6.54a8.66,8.66,0,0,0,1.19-1.7c.64-1.07,1.22-2.18,1.87-3.24A5.87,5.87,0,0,1,363.71,63.84Z"/><path class="cls-1" d="M203.74,74.51a11.3,11.3,0,0,0,.78,1.66q5.91,8.71,11.85,17.39c.57.83,1.09,1.69,1.66,2.57-.66.43-.84-.23-1.19-.38a8.2,8.2,0,0,1-1-.61c-1.06,3.31-1.5,2.18,1,7.19-.55.33-.84-.18-1.12-.42-1.8-1.5-3.58-3-5.33-4.56-7.41-6.56-14.79-13.17-22.23-19.7a26.12,26.12,0,0,1-6.38-8c-3.17-6.34-6.43-12.64-9.65-19a140.83,140.83,0,0,1-6.49-14q-2.11-5.57-4.11-11.18a19.39,19.39,0,0,1-1.12-8.51c.28-2.83-.3-5.59-.64-8.37a4.27,4.27,0,0,0-.68-1.47c-.7-1.22-1.39-2.44-2.17-3.61A2.2,2.2,0,0,1,156.8,1c.65-.14.78.43,1,.78,2.06,3.12,4.08,6.27,6.13,9.4,3.59,5.48,7.2,10.94,10.78,16.42,1,1.5,1.9,3,2.77,4.61,3.26,5.86,6.41,11.78,9.74,17.59,2,3.44,4.19,6.76,6.37,10.08,3,4.62,6.15,9.2,9.25,13.78a5.91,5.91,0,0,0,1,.91Z"/><path class="cls-1" d="M310.2,224.85l-2.45.57a4.16,4.16,0,0,1,.51-.92c1.61-1.47,3.23-2.94,4.88-4.36,1.18-1,2.43-2,3.63-3a3.73,3.73,0,0,0,.78-.85.85.85,0,0,0,0-.64.45.45,0,0,0-.4-.16,5.78,5.78,0,0,0-1.11.32c-.94.39-1.86.81-2.79,1.22a16.75,16.75,0,0,1-5.6,1.64,13.66,13.66,0,0,1,1.44-1.27c2.1-1.34,4.23-2.64,6.34-4a26.16,26.16,0,0,0,2.49-1.74c.2-.16.15-.64.26-1.2-3,.53-5.58,1.44-8.26,2.18,2-2.48,5-3.57,7.24-5.74,1.45.9,1.94,2.42,3,3.38.43-.43.1-.72-.1-1a42,42,0,0,1-4-7.39,14.19,14.19,0,0,1-1.07-5.46,33.92,33.92,0,0,0-1.43-10.62c-.76-2.44-.78-3.33-.37-6.39.41-.15.57.15.7.42a22.07,22.07,0,0,1,2.18,6.15,16.59,16.59,0,0,0,.59,2.5c1,3,1.51,6.21,2.82,9.15a19,19,0,0,0,1.16,2.28c.16.26.59.34,1,.57a13.31,13.31,0,0,0-.4-4.79c-.66-4.31-1.51-8.6-2.07-12.93-.34-2.62-.33-5.29-.43-7.94-.07-1.71,0-3.44-.11-5.15-.16-2.2.72-4.08,1.41-6,.69,0,.67.48.7.79a95.17,95.17,0,0,0,2.79,14.21,39.68,39.68,0,0,1,1.12,10.9c0,.62,0,1.25,0,1.87,0,.14.13.27.25.5.25-.18.6-.31.68-.53a4.28,4.28,0,0,0,.17-1.38,55.3,55.3,0,0,0-1.29-12.77,13.49,13.49,0,0,1-.38-3.71q.26-7.37.5-14.73c.05-1.64.07-3.28.11-4.91a3.91,3.91,0,0,1,.73-2.55,3.94,3.94,0,0,1,2,2.84c.16.84.2,1.7.29,2.56.37,3.57.75,7.13,1.1,10.7.38,3.9,0,7.79-.15,11.69,0,1.64-.14,3.28-.11,4.91a3.39,3.39,0,0,0,.7,2.55c.67-.28.56-.79.56-1.21,0-2.42,0-4.84,0-7.26,0-1.17,0-2.34,0-3.51a30.6,30.6,0,0,1,1.24-9,48.26,48.26,0,0,0,1.54-8.74,44.22,44.22,0,0,1,.57-4.87,44.74,44.74,0,0,1,1.56-5.62c.61-1.76,1.43-3.46,2.17-5.17a5.09,5.09,0,0,1,.43-.66c.42,1.48.48,1.61.27,2.58-1.22,5.66-1.57,11.43-2.32,17.15a105.33,105.33,0,0,1-1.94,11.52,41.58,41.58,0,0,0-1.12,10.91c0,.46,0,1,.66,1a8,8,0,0,0,.26-2.53c.25-2.56.47-5.12.76-7.68a18.63,18.63,0,0,1,1.58-5.36,137.22,137.22,0,0,1,8.18-15.5,9.43,9.43,0,0,1,.57-.76c.34.48.08.84,0,1.15q-4,10.34-8.13,20.67a6.18,6.18,0,0,0-.38,1.1c0,.17.15.39.22.56.64.06.84-.42,1.15-.73s.81-1.08,1.33-1.26c1.68-.56,2.88-1.81,4.24-2.82.42.44.13.75-.08,1.05l-8.45,12.07a106,106,0,0,0-9.69,16.51c-.07.16.07.41.14.78a14.43,14.43,0,0,0,2.61-2,10.64,10.64,0,0,1,2.36-1.73c.09.16.18.25.16.3-1.15,2.88-1.92,5.93-3.81,8.48a15.92,15.92,0,0,0-2.64,6.19c-.24,1.07-.53,2.12-.78,3.18a26.54,26.54,0,0,0-.67,5.32q-.23,7.72-.64,15.43c-.1,1.86-.48,3.71-.72,5.57a5.09,5.09,0,0,1-1.45,3.36,1.9,1.9,0,0,0-.52,1.72,4.63,4.63,0,0,1-1.2,3.43c-1.38,1.69-2.68,3.45-4,5.15a10.06,10.06,0,0,0-2,3.11c0,.07-.06.18-.11.2-.27.1-.59.3-.82.24a.83.83,0,0,1-.48-.64,5.22,5.22,0,0,1,1-2.82c.84-1.22,1.65-2.47,2.57-3.63a12.21,12.21,0,0,0,2.84-8.45,10.81,10.81,0,0,1,.94-5c.69-1.57,1.25-3.19,1.78-4.82.28-.86.65-1.78,0-2.68a1,1,0,0,0-1.32.59c-1.28,2.75-2.59,5.5-3.86,8.26s-2.63,5.82-4,8.73a18.5,18.5,0,0,1-1,1.59,15.76,15.76,0,0,1,0-1.6,14,14,0,0,1,2-5.69,10.58,10.58,0,0,0,.93-1.87c.08-.21-.1-.53-.24-1.08a59.06,59.06,0,0,1-7.67,7.19,13,13,0,0,1,1.8-5.15,27.84,27.84,0,0,1,2.81-3.72c1.91-2.16,3.91-4.24,5.86-6.36,1.16-1.26,2.31-2.53,3.47-3.8.21-.23.45-.44.64-.69.56-.72.66-1.35.29-1.67-.56-.47-1,0-1.51.17a23.73,23.73,0,0,0-5,3l-2.42,1.71c-.58-.39-.19-.64,0-.81,1.6-1.7,3.24-3.38,4.84-5.08,1-1,1.89-2.08,2.8-3.14a.87.87,0,0,0,0-1.25c-.1,0-.2-.06-.25,0a20.5,20.5,0,0,0-4.7,3.25l.09-.07a3.33,3.33,0,0,0-2.44,1.48Z"/><path class="cls-1" d="M382.29,395c-1.92,2.33-3.89,4.74-5.9,7.12-1,1.19-2.1,2.3-3.15,3.45-1.54.19-3.08.35-4.62.57a10.63,10.63,0,0,0-1.78.48c-1,.34-2,.78-3.08,1.06a4.25,4.25,0,0,1-4.18-.66,9.26,9.26,0,0,0-2.49-1,2.9,2.9,0,0,1,1-2.82c3.91-3.64,6.92-8,10.09-12.26a16.69,16.69,0,0,0,1.7-3.06,2.62,2.62,0,0,0-.55-3.4,5.91,5.91,0,0,1-2.09-5,2.54,2.54,0,0,0-.11-.92c-.18-.53-.57-.7-1.2-.44-.41.77-.06,1.62,0,2.43a2,2,0,0,1-1,2.15,1.92,1.92,0,0,1-.2.12c-2.3,1-3.55,2.91-4.57,5.08a17.83,17.83,0,0,1-2.91,4.5c-.89,1-1.6,1-2.61.12a10.25,10.25,0,0,1-1-1.27c.52-1.21.93-2.39,1.5-3.48a23.76,23.76,0,0,0,2.23-8.54,3.59,3.59,0,0,1,1.5-2.73c1.62-1.21,3.19-2.48,4.78-3.75a2.62,2.62,0,0,0,.41-.62l-.72-.64L361,372.91a12.77,12.77,0,0,1-1-.77c-.7-.62-1.35-1.3-2-1.92a10.94,10.94,0,0,0-4.69-2.51c-1.44-.35-2.88-.67-4.32-1a12.67,12.67,0,0,0-5.79-.07,6.55,6.55,0,0,1-1.85.16,5.7,5.7,0,0,1-1.44-.58c2.77-2.36,5.65-4.21,8.28-6.37a61,61,0,0,0,7.46-6.78c.73.44,1.34.76,1.9,1.15,2.88,2,5.8,3.95,8.6,6.05a28,28,0,0,1,6.58,6.57,54.83,54.83,0,0,0,6.68,8.11,14.9,14.9,0,0,1,3.66,7.46c.42,1.81.55,3.7.83,5.55a1.79,1.79,0,0,1-.24,1.56C382.2,391,382.14,392.88,382.29,395Z"/><path class="cls-1" d="M312.45,223.53l2.66-.61c-.77.78-1.19,1.21-1.61,1.62-1.5,1.47-3,2.92-4.51,4.42a9.68,9.68,0,0,0-1.24,1.69c-.2.32-.36.79,0,1a1.53,1.53,0,0,0,1.08.16,4.93,4.93,0,0,0,1.23-.66c1.66-1,3.32-2,5-3,.52-.31,1.06-.57,1.64-.88.22.6-.2.78-.41,1q-3.38,3.88-6.79,7.73c-.83.93-1.73,1.79-2.59,2.7a17.86,17.86,0,0,0-4.38,8.89,1.87,1.87,0,0,0,0,.7c0,.14.15.25.3.49,1.31-.35,2.13-1.43,3.12-2.24s1.95-1.78,3.24-3c-.84,3-2.21,5.54-.87,8.36a2.59,2.59,0,0,0,1.65-1.75c.95-2.05,1.86-4.12,2.78-6.18,1.34-3,2.66-6,4-9,.35-.76.81-1.46,1.24-2.21.18.14.3.21.29.23-.18.51-.36,1-.56,1.51-.55,1.37-1.13,2.73-1.66,4.11a11.7,11.7,0,0,0-.79,4.58,12,12,0,0,1-2.21,7.26c-1,1.42-1.87,2.88-2.83,4.3a7.37,7.37,0,0,0-1.78,4.32c-.94.22-1.92.46-2.91.66-.6.12-1.22.18-1.93.27a19.65,19.65,0,0,0-10.85-7.93,11.56,11.56,0,0,1,1.27-1.3,4.69,4.69,0,0,0,2-4.49q-.29-3.73-.6-7.45c-.07-.78-.2-1.55-.28-2.32a5.3,5.3,0,0,1,1-4.19,1.92,1.92,0,0,0,.33-.61c.94-2.81,2.89-5,4.66-7.23.67-.86,1.33-1.73,2-2.62a6.56,6.56,0,0,0,.49-1.24c-2.51.14-4.21,1.53-6.09,3.14a4,4,0,0,1,.22-.94c.89-1.37,1.73-2.78,2.71-4.09a28.17,28.17,0,0,1,5.67-6.17,1.12,1.12,0,0,0,.55-1.19c-.1-.39-.79-.67-1.43-.51-1.21.3-2.4.66-3.6,1a2.65,2.65,0,0,1-1.45.1,5.37,5.37,0,0,1,.72-.66,10.35,10.35,0,0,0,2.79-2.47,15,15,0,0,1,3.6-3.3,23.61,23.61,0,0,0,2.69-2.23,5.25,5.25,0,0,0,.72-1.28c-1.6-.36-2.67.52-3.84,1s-2.35,1.08-3.52,1.61c-.35-.67,0-1,.3-1.35,2.18-2.55,3.28-5.61,4.29-8.75a18.51,18.51,0,0,0,1-6.88c-.11-1.71,0-3.43-.07-5.15a13.37,13.37,0,0,0-1-5c-1.36-3.23-2.69-6.47-4-9.7a3,3,0,0,1-.45-1.73c.22-.05.43-.16.49-.1,4.69,4.45,9.37,8.91,14.17,13.47.36,5.11,1.54,10.29,2.07,16a10.39,10.39,0,0,1-1.48-3.56q-1.5-5.28-2.83-10.61a6.63,6.63,0,0,0-3.21-4,9.79,9.79,0,0,0-.42,1.7c-.08,1.64-.15,3.27-.11,4.91a7.74,7.74,0,0,0,.42,2.51,30.62,30.62,0,0,1,1.74,10.33,17.09,17.09,0,0,0,2.12,8,6,6,0,0,1,.28.64,2.09,2.09,0,0,1,0,.39,20.11,20.11,0,0,1-4.29,3.38c-.9.61-1.81,1.22-2.66,1.89a4.55,4.55,0,0,0-1.6,2.26,1,1,0,0,0,.17.82,1.07,1.07,0,0,0,.84.2,5.13,5.13,0,0,0,1.07-.45c.85-.38,1.7-.79,2.57-1.12a8.64,8.64,0,0,1,1.53-.26c-.27.36-.36.59-.53.7q-3,2-6.1,3.91a4.07,4.07,0,0,0-2,1.9,1,1,0,0,0,.08.84.88.88,0,0,0,.82.17c2.18-1.11,4.63-1.1,7.4-2a37.75,37.75,0,0,1-4.68,4,10.91,10.91,0,0,0-2.67,3.21,5.17,5.17,0,0,0-.28,1.27,4.8,4.8,0,0,0,3.89-1.78l-.1.09a3.74,3.74,0,0,0,2.44-1.48Z"/><path class="cls-1" d="M203.82,74.58a4.3,4.3,0,0,0-.31-1.05c-5.38-8.87-10.44-17.91-15.31-27.07A44,44,0,0,1,184,36.36a44.93,44.93,0,0,1-1.37-14.6,17.31,17.31,0,0,0,.11-4.88c-.31-1.47-1.33-2.79-2-4.18-.41-.82-1.08-1.59-.47-2.74.23.18.51.3.63.51,2.7,4.74,5.52,9.42,8,14.25C195.3,37,201.61,49.36,208,61.7,212.67,70.85,217.39,80,222,89.18c2.74,5.43,5.3,10.94,7.94,16.42.23.47.4,1,.6,1.48-.6.28-.8-.15-1-.37a60,60,0,0,0-7.64-6.88A7.45,7.45,0,0,1,220.18,98q-5.55-8.38-11.22-16.7c-1.4-2.06-2.88-4.07-4.36-6.09a3.83,3.83,0,0,0-.87-.66Z"/><path class="cls-1" d="M395.83,94.71a6.7,6.7,0,0,1-2.11,3.53c-3.92,4.24-7.91,8.41-11.78,12.7-3.71,4.11-7.3,8.33-10.58,12.79-2.17,3-4.37,5.89-6.57,8.82a10.06,10.06,0,0,1-.91,1.07,107,107,0,0,0-10.35,13q-4.94,6.82-10,13.59c-.3.41-.48,1-1.16,1l.05,0a11.53,11.53,0,0,1,.39-1.79c.92-2.4,1.92-4.77,2.83-7.18.5-1.31.91-2.65,1.3-4a6.92,6.92,0,0,0,0-1.62l-2.11,1.78a6.42,6.42,0,0,1,0-1.51q2-7.07,4.17-14.12a7.12,7.12,0,0,1,1-2.08c2.53-3.47,4.63-7.21,6.93-10.83a77.84,77.84,0,0,1,12-14.34,24.06,24.06,0,0,0,3.14-3.75c1.2-1.73,2.54-3.36,3.83-5a12.47,12.47,0,0,1,1-1c0,.42.07.63,0,.76-3.88,6.31-7.15,13-10.7,19.46-2.92,5.33-6,10.54-9.06,15.82-1.54,2.71-3.09,5.42-4.53,8.18a38.31,38.31,0,0,0-3,8.1,1.3,1.3,0,0,0,.11,1c.3-.51.63-1,.88-1.52,1.18-2.54,2.42-5.07,3.49-7.66a81.51,81.51,0,0,1,5.32-10.13c1.9-3.22,3.84-6.42,5.75-9.64a13.53,13.53,0,0,1,2.66-3.24c4.2-3.73,8.42-7.44,12.52-11.27a6.74,6.74,0,0,1,4.37-1.95,6.44,6.44,0,0,0,4.64-2.35q2.61-2.85,5.24-5.67c.35-.38.58-1,1.25-.92Z"/><path class="cls-1" d="M243.07,140l-.8-.85-1.2.86a2.55,2.55,0,0,1-.57-.28q-4.86-4-9.7-8.09c-2-1.66-3.93-3.32-5.86-5-2.92-2.58-5.82-5.19-8.73-7.78-1.4-1.25-2.76-2.53-4.2-3.72a8.06,8.06,0,0,1-2.49-3.33,72,72,0,0,0-3.64-7.06,6.14,6.14,0,0,0-1.88-2c-.75-.56-1.52-1.09-2.23-1.69-.12-.1,0-.51.08-1a7.08,7.08,0,0,1,1,.5c5.24,4.06,10.49,8.1,15.7,12.21,1.77,1.4,3.43,2.95,5.11,4.45,2.27,2,4.51,4.08,6.77,6.12a16.69,16.69,0,0,0,4.42,3,4.5,4.5,0,0,0,.9.14c-.45-.66-.77-1.15-1.11-1.62-2.63-3.58-5.32-7.12-7.87-10.75-3-4.28-5.85-8.65-8.82-12.95a3.86,3.86,0,0,1-.77-3.22,4.7,4.7,0,0,1,1,.43c1.61,1.23,3.26,2.42,4.77,3.76,1.69,1.49,3.3,3.09,4.86,4.72s3.25,3.58,4.88,5.36c.29.32.64.58,1.14,1a5.34,5.34,0,0,0-.64-2.69,117.23,117.23,0,0,0-5.38-11.42A32.39,32.39,0,0,1,224.22,90a8.84,8.84,0,0,1-.22-3.43c.7-.12.81.45,1,.8a96.68,96.68,0,0,1,8.12,15.25c2.52,5.87,5.14,11.7,7.76,17.53a15.24,15.24,0,0,1,1.3,4.22,17.62,17.62,0,0,0,1.71,5.32c1,2,2,3.89,3,5.84l.74,1.44c-.4.4-.6.07-.76-.17-.76-1.18-1.54-2.34-2.22-3.57a33.12,33.12,0,0,0-2.9-4.79,24.79,24.79,0,0,1-1.4-2.42,5.24,5.24,0,0,0-.89-.84c-.22.41-.47.66-.49.93a14,14,0,0,0,.31,5.09,18.5,18.5,0,0,0,4.76,8.2,7.54,7.54,0,0,1,.59.72,1.58,1.58,0,0,1,.13.29L243,140Z"/><path class="cls-1" d="M323.72,320c.06-1.34.11-2.81.19-4.29a31.25,31.25,0,0,0,.21-3.26,9.06,9.06,0,0,1,1.49-5.27,70,70,0,0,1,9.1-12.71,19.37,19.37,0,0,1,1.87-1.75,3.63,3.63,0,0,1,3.69-.63c.24,3.34-1.57,8.95-4.3,13.32.36,1.46.76,3,1.13,4.62a69.39,69.39,0,0,1,1.57,9.45,11.56,11.56,0,0,1-.46,5.09,49.27,49.27,0,0,1,3.26,10,3.21,3.21,0,0,1,0,.88c-2.5.56-2.51.56-4.71,2.37a11.79,11.79,0,0,1-2.55,1.86,26.24,26.24,0,0,1-.51-4c-.08-.62-.05-1.25-.1-1.87a5.69,5.69,0,0,0-1.33-3.42c-.51-.59-1-1.2-1.48-1.81a8.38,8.38,0,0,1-1.28-1.67c-1.17-2.67-3.43-4.39-5.38-6.4A5.62,5.62,0,0,1,323.72,320Z"/><path class="cls-1" d="M253.71,161.84c.64-1.05,1.29-2.1,1.91-3.16a1.25,1.25,0,0,0,.17-.67c0-.29-.06-.76-.23-.82a1.3,1.3,0,0,0-1.07,0c-1.16.9-2.26,1.89-3.38,2.83-.58.49-1.19,1-1.77,1.41-.46-.43-.15-.7,0-.92,1-1.49,2-3,3-4.44.35-.51.73-1,1.06-1.53s.58-1,.93-1.67c-1.94-.19-3.72-.24-5.45-.58a51.27,51.27,0,0,1-7.51-1.52,7.4,7.4,0,0,1-3.89-3.54,6.62,6.62,0,0,1,1.23.13c1.54.52,3.07,1.1,4.62,1.6a4.36,4.36,0,0,0,1.3-.06c-.78-1-1.88-1.14-2.64-1.75s-1.61-1.22-2.38-1.86-1.52-1.33-2.25-2a23.79,23.79,0,0,1-2.12-2.17,4.68,4.68,0,0,1-1.5-2.7,5.06,5.06,0,0,1,1.62,0,15.89,15.89,0,0,1,4.38,2.14c2.51,2,5,3.9,7.58,5.84.37.28.76.53,1.11.77.73-.51.23-.89-.07-1.13-1.45-1.17-2.92-2.32-4.43-3.42a3.74,3.74,0,0,1-1.54-2.09l.7-.49L243,140a37.33,37.33,0,0,0,6.09,4.43c.58-.43.25-.7.1-.89-.74-.91-1.5-1.79-2.27-2.67-1.34-1.52-2.71-3-4-4.54a9.65,9.65,0,0,1-2.21-4.32,13.23,13.23,0,0,1-.72-4.11c.84.12,1,.81,1.32,1.29,1.17,1.84,2.19,3.78,3.43,5.57,1.64,2.37,3.43,4.63,5.17,6.93.24.32.61.43,1.2.23-.73-1.6-1.4-3.13-2.25-4.59a49.78,49.78,0,0,1-5.35-12.91,16.93,16.93,0,0,1-.35-3.74,5.67,5.67,0,0,1,1.54,2.75c.39.93.71,1.9,1.14,2.81s1,1.76,1.49,2.65,1,1.94,1.48,2.92.84,1.84,1.3,2.74,1,1.79,1.45,2.67,1,1.74,1.46,2.56c.63-.07.87-.37.7-.79a14.56,14.56,0,0,0-1-1.86q-.88-1.51-1.82-3a9.71,9.71,0,0,1-1.5-3.88,9.57,9.57,0,0,0-.65-2.23,21.72,21.72,0,0,1-1.38-5.9c-.12-1.13-.28-2.26-.44-3.57a2.94,2.94,0,0,1,1.46,1.71c1.36,2.81,2.75,5.6,4,8.44.57,1.27.87,2.66,1.33,4q1.36,4,2.75,7.94c.07.2.27.36.55.71l.47-2c.67-.09.59.42.64.74.64,4.16,1.26,8.32,1.89,12.49.28,1.85.69,3.69.84,5.55.32,3.81.51,7.62.74,11.43.12,2,.21,4,.32,6.05-.65.07-.79-.34-.88-.67-.37-1.43-.77-2.86-1-4.31-.36-2.07-.6-4.16-.89-6.25a5,5,0,0,0-.72-2.18,2.29,2.29,0,0,0-1.19,2,10.42,10.42,0,0,1-1.08,3.79c-.56-.08-.54-.5-.5-.86a11.78,11.78,0,0,1,.34-2.31,9.23,9.23,0,0,0,.21-4.12c-.62-.33-.9.11-1.22.44s-.48,1.05-1.23.78Z"/><path class="cls-1" d="M372.63,277c1.88,2.3,3.47,4.9,6,6.94a3.69,3.69,0,0,1-1,.4c-1.63,0-2.47.94-3.1,2.36a55.43,55.43,0,0,1-2.68,4.92c-.38.66-.88,1.26-1.27,1.81a12.27,12.27,0,0,0-3.63.08,9.75,9.75,0,0,0-2.8,2.05,37.27,37.27,0,0,0-2.89,2.7,3.44,3.44,0,0,1-1.73,1.1c-1.13.27-2.26.57-3.39.87l-3.85,1c-1.06-.36-1.85-1.46-2.75-2.4a37.63,37.63,0,0,1-5.21-6.51C346.19,290.92,370.55,277.73,372.63,277Z"/><path class="cls-1" d="M251,232.88l-.25.18c-.66.4-1.32.83-2,1.19-.3.16-.62.53-1.11.05a6,6,0,0,1,.44-2.4c.33-.79.73-1.55,1-2.35a5.72,5.72,0,0,1,1.94-2.81c1.81-1.35,2.19-3.35,2.26-5.67a5.5,5.5,0,0,0-1.95,1.55c-.72.66-.71.66-2.11,1,.59-.74,1.09-1.32,1.52-1.95a11.24,11.24,0,0,0,1.13-2c.1-.23-.22-.64-.36-1-1.34.91-2.52,1.78-3.77,2.53a27.18,27.18,0,0,1-4,2.38,10.54,10.54,0,0,1,1.1-4.9c.46-1.05,1.23-2,1.23-3.22l-.05.09a5,5,0,0,0,1.41-3.4c-2.64,1.59-4.56,4.06-7.73,5.24a7,7,0,0,1,1.84-2.93c1.48-1.26,3-2.47,4.5-3.69.54-.44,1.13-.81,1.68-1.24.23-.18.52-.41.14-.74a16.79,16.79,0,0,0-5.5,2.88,9.4,9.4,0,0,1-4.82,1.51,11.22,11.22,0,0,1,.94-1.24c1.56-1.51,3.15-3,4.73-4.5.56-.54,1.11-1.09,1.63-1.66a.73.73,0,0,0,0-1.15,44.28,44.28,0,0,0-4.23,2.24c-1.2.8-2.58,1.38-3.5,2.58l.1-.09c-1.07,0-2,.73-3.18.43,2.41-4.44,8.58-9.65,12.82-10.76a17.44,17.44,0,0,1-1.76,2.75.87.87,0,0,0,.34,1.28,14.18,14.18,0,0,0,4.16-2.32,10.67,10.67,0,0,1,3.37-1.53,3.27,3.27,0,0,1,.82,0,11.32,11.32,0,0,1-.71,1c-.88,1-1.79,1.94-2.67,2.93-1.36,1.53-1.35,1.54-.72,3.9a2.88,2.88,0,0,0,1-.36,11.84,11.84,0,0,1,4-2.13,4.14,4.14,0,0,1-1,1.83,23.47,23.47,0,0,0-3.53,7.82,3.22,3.22,0,0,0,.25,2.67,2.69,2.69,0,0,0,1.89-1.27,6.77,6.77,0,0,1,2.78-2c1.11-.52,2.14-1.23,3.32-1.92-.18,1.35-1.62,2-1.67,3.37l.07-.09c-1.65,1.32-1.86,3.1-1.51,5,.07.39.44.72.68,1.09,1.14-.54,2-1.56,3.32-1.23-.68,1.12-1.36,2.15-1.95,3.24a1.22,1.22,0,0,0,.07,1.53,1.54,1.54,0,0,0,1.74.31c.72-.3,1.42-.65,2.13-.95.26-.11.55-.33.87,0-.11.19-.17.45-.33.58a15.57,15.57,0,0,0-3,3.53,4.84,4.84,0,0,0-1,2.55,5.66,5.66,0,0,1-1.44,3.62c-1.3,1.34-2.64,2.65-4,3.91-.94.86-1.23.93-2.93,1.28a12.87,12.87,0,0,1,3.21-5.66,18.88,18.88,0,0,0,2.85-4,1.06,1.06,0,0,0-.29-1.5L251.7,232C251.44,232.28,251.2,232.59,251,232.88Z"/><path class="cls-1" d="M326.47,150.19l-1.51-.71a5.11,5.11,0,0,0-1.17,3.31c-.11,1.4-.11,2.81-.2,4.21,0,.51.17,1.1-.43,1.62a3.7,3.7,0,0,1-.54-.61c-.53-1-1-1.95-1.53-2.89a10.09,10.09,0,0,1-1.55-4.54,37.09,37.09,0,0,0-1.1-5.25c-.68-3.2-1.47-6.39-2-9.61a23.89,23.89,0,0,1,.55-10.44,106.66,106.66,0,0,1,5.1-14.55,6.28,6.28,0,0,0,.6-3.15c-.16-2.26-.25-4.52-.35-6.78,0-.43,0-.87.08-1.61.43.41.73.57.82.81a6.42,6.42,0,0,1,.37,1.59c.64,6.83,1.44,13.66,1.17,20.54-.22,5.56.52,11.05,1,16.56.31,3.49.52,7,.76,10.5A7,7,0,0,1,326.47,150.19Z"/><path class="cls-1" d="M278.37,358.7a4,4,0,0,1,.42-2.2c.87-2.49,1.41-2.82,4-2.31,1.91.38,3.8.85,5.69,1.31l20.19,4.95a9.74,9.74,0,0,1,.95.32l3.16,5.58c-.19.08-.34.21-.45.18q-16.76-3.73-33.52-7.49C278.63,359,278.53,358.85,278.37,358.7Z"/><path class="cls-1" d="M296.65,489.23a11,11,0,0,1-2.6-2.46,37.51,37.51,0,0,0-2.82-2.78,54.06,54.06,0,0,1-6.25-6.61,2.78,2.78,0,0,1-.67-1.93c0-1.56,0-3.12.17-4.67s1.12-2.66,1.3-4.52c1.27,1.27,2.15,2.25,3.15,3.11s2.19,1.5,3.16,2.38c2.18,2,4.28,4.09,6.4,6.15a2.32,2.32,0,0,1,.78,1.1,23.77,23.77,0,0,0,2.09,6.15,6.92,6.92,0,0,1,.21.78,3.27,3.27,0,0,1-1.73-.6,8.65,8.65,0,0,0-2.17-.75,1.11,1.11,0,0,0-1.22,1.34c.07.7.22,1.38.29,2.08A9,9,0,0,1,296.65,489.23Z"/><path class="cls-1" d="M238.07,218.78a4.1,4.1,0,0,0-1.12.14,5.86,5.86,0,0,0-1.4.83c-3.16,2.56-6.87,4.24-10.29,6.38-1,.62-2,1.27-2.93,1.9a13.2,13.2,0,0,1-1.17.76c-1.09.55-2.2,1.07-3.31,1.61-.38-.49,0-.86.26-1.21a59.51,59.51,0,0,1,9.53-12.05c1.78-1.73,3.78-3.24,5.16-5.36.37-.58,1-.68,1.58-.9,1-.37,2.13-.49,2.78-1.49l-.1.09c.44-.12.88-.21,1.3-.35.65-.22,1.29-.47,1.93-.71l.15.16c-.94,1-1.89,2-2.82,3a7.73,7.73,0,0,0-2.14,3.34c1.93.21,3.45-.93,5.33-1.32l-2.81,5.2Z"/><path class="cls-1" d="M319.9,160.09c-.28.48-.39.67-.5.85s-.25.38-.46.68c-1.82-2-3.5-3.8-5.17-5.63-.63-.69-1.23-1.41-1.84-2.12a7.29,7.29,0,0,1-1.59-6.77l.79-3.41a6.93,6.93,0,0,0-1.06-5.35c-.53-.86-1.07-1.72-1.56-2.61a4.71,4.71,0,0,1-.17-1.23,14.23,14.23,0,0,1,1,1.2c2.63,4.24,5.17,8.52,7.44,13,2,3.81,4,7.58,6,11.34a5.28,5.28,0,0,1,.77,2.87c-.13,2.64-.22,5.28-.35,8.23a4.75,4.75,0,0,1-.84-2.27q-.74-3.3-1.49-6.6A5,5,0,0,0,319.9,160.09Z"/><path class="cls-1" d="M396.58,108.47c-.94.78-1.72,1.41-2.48,2.05a173.85,173.85,0,0,1-15.31,11.11c-2.65,1.78-5.16,3.76-7.74,5.65a6.46,6.46,0,0,1-1.82,1.07,11.52,11.52,0,0,1,.66-1.12c3.59-4.81,7.17-9.61,11-14.21a5.06,5.06,0,0,1,4-2c1.79,0,3.57-.32,5.36-.35s3.08-.31,4.1-1.75C394.82,108.3,395.47,108.06,396.58,108.47Z"/><path class="cls-1" d="M318.77,165.46c-1.32,1.66-1.24,3.36-1.16,5.08.06,1.37.16,2.75.09,4.06-.57.21-.73-.13-.9-.35q-3-3.73-6-7.49c-.39-.49-.72-1-1.09-1.51a7.63,7.63,0,0,1-1.53-6.15,2.91,2.91,0,0,0-.81-2.76,12.61,12.61,0,0,1-1.19-1.43c-.26-.37-.47-.8,0-1.21.08,0,.19,0,.23.07,2.8,3.47,6.39,6.12,9.63,9.12C316.9,163.69,317.74,164.49,318.77,165.46Z"/><path class="cls-1" d="M235.39,137.15a29.23,29.23,0,0,1-6.67-2.12c-2.78-1.22-5.52-2.52-8.25-3.85a30,30,0,0,1-8.16-6.16c-.08-.08-.05-.28-.07-.42a41.88,41.88,0,0,1,9.81,2.73,3.9,3.9,0,0,0,1.06.47,8.33,8.33,0,0,1,4.24,2.31q3.67,3.08,7.33,6.18A7.77,7.77,0,0,1,235.39,137.15Z"/><path class="cls-1" d="M354.26,308.77c-.15-.16-.31-.32-.46-.49s-.26-.32-.52-.63a13.59,13.59,0,0,1,5.37-.33c.15,0,.26.3.43.52a19.6,19.6,0,0,1-2.87,1.06,6.63,6.63,0,0,1-2-.21Z"/><path class="cls-1" d="M352,312.44a12.88,12.88,0,0,1-1.51-.52.91.91,0,0,1-.46-.69.92.92,0,0,1,.49-.69,8,8,0,0,1,2-.41c.78,0,1.24.51,1.21,1.33C353.73,312.09,353.26,312.45,352,312.44Z"/><path class="cls-1" d="M395.88,94.75l.13-.53.24.19-.42.3Z"/><path class="cls-1" d="M184.83,491l-.89.22c.31-.44.64-.2.94-.19Z"/><path class="cls-1" d="M253.75,161.82v.33s.1-.1.09-.14-.08-.11-.12-.17Z"/><path class="cls-1" d="M342.42,161.18c0,.07.11.15.09.2a2.5,2.5,0,0,1-.23.37l-.17-.14.36-.38Z"/><path class="cls-1" d="M272.27,251.63v-.93c.29.49.29.49,0,.89Z"/><path class="cls-1" d="M240.29,208.41a2.32,2.32,0,0,1,1.72-1.12,2.27,2.27,0,0,1-1.57,1.28Z"/></svg>