<svg id="Layer_1" data-name="Layer 1" xmlns="http://www.w3.org/2000/svg" viewBox="0 0 1080 1080"><defs><style>.cls-1{fill:#fefefe;}</style></defs><title>1Artboard 1</title><path class="cls-1" d="M518.55,454.24c.17,0,.4.07.49,0a31.85,31.85,0,0,0,8.28-12.12,2.31,2.31,0,0,0-1.09-3.13c-2,.77-3.24,2.51-4.51,4.17-2,2.65-4.21,5-7.57,6.11a12.33,12.33,0,0,0-3.24,2.24c-1,.77-2,1.61-3.56,2.89.5-5.11,2.16-9,3.88-12.91s4-7.62,7.81-10c0-1.16.06-2.13,0-3.09-.06-.81-.28-1.6-.51-2.83-2.39,1.4-4,3.28-6,4.55a64.69,64.69,0,0,1-7.18,3.38c1.07-2.78,2.9-4,4.27-5.47s3-3.1,4.39-4.72,2.66-3.3,4-5c-2.79-1.19-3.4-1.32-5.74-.43-4.31,1.65-8.77,3-12.35,6.15A21.77,21.77,0,0,1,497,425.7c1.78-3.51,4.74-5.52,5.35-9.29-3.57.31-6.48,2.5-10.51,3l3.69-4.88c1.19-1.58,2.36-3.18,3.56-4.76.3-.39.81-.68,1-1.11a4.54,4.54,0,0,0,.38-2.26c-.19-.94-1.14-1-2-1a11.28,11.28,0,0,0-5.13,1.67,50.08,50.08,0,0,1-9.94,4.17c-.14-.44-.38-.82-.28-1,.94-1.34,1.7-3,3-3.89,5.39-3.9,10-8.69,14.89-13.1.59-.53,1.16-1.23,2.38-.82.38,1.67,0,3.44-.09,5.2-.18,3.3-.39,6.61-.49,9.91-.08,2.65,0,2.65,2.54,5.25,2.53-2,5-4,5.36-7.64a9.55,9.55,0,0,1,.75-3.32,49.82,49.82,0,0,0,4.66-13.55,3.08,3.08,0,0,1,1.44-2.08c.35,3.74.75,7.47,1,11.21.19,2.64.1,5.3.32,7.93a36.07,36.07,0,0,0,.95,5.83c1,4.17,2.45,8.25,3.32,12.45,1.39,6.7,4.37,12.82,6.65,19.19,2.73,7.62,5.77,15.14,7.3,23.14a71.4,71.4,0,0,0,4.22,13.71c2.5,6.11,4.67,12.36,7,18.53a8.27,8.27,0,0,0,1.55,2.49,25.5,25.5,0,0,0-1.12-8q-6.08-18.1-12-36.25c-.82-2.51-1.46-5.09-2.13-7.65a270.48,270.48,0,0,0-9.75-30.18,70.82,70.82,0,0,1-4.35-19.26c-.39-4.27-.67-8.57-.75-12.86-.08-4.76-.47-9.56.87-14.2-2.17-.82-3.18-.55-3.63.92a15,15,0,0,0-.44,2.43,61.65,61.65,0,0,1-4.18,15.77c-1.39,3.36-2.53,6.81-3.76,10.23a53.19,53.19,0,0,1-2.67,5.81c-.59-.65-1-.86-1-1.08-.18-7.27-.61-14.55,1.61-21.65a19.47,19.47,0,0,0,.83-4.38,43.62,43.62,0,0,1,3.63-14.86c.53-1.18.71-2.24-1.14-2.74-1.87,1.56-2.9,3.82-4.08,6A58.44,58.44,0,0,1,497,380.57c-.54.56-1.19,1-2.32,1.94a24.76,24.76,0,0,1,0-2.53A50.43,50.43,0,0,1,499,365.3q2.83-6.07,5.31-12.28c.72-1.8,1.55-3.68,1-6.06a20.72,20.72,0,0,0-2.45,1.74c-3.22,3.09-6.45,6.19-9.57,9.38a104.34,104.34,0,0,1-13.1,11.74,16.9,16.9,0,0,1,.65-2.87c1.33-2.84,2.57-5.75,4.14-8.45,2.83-4.86,5.88-9.59,8.83-14.37,1.12-1.82,2.52-3.56,1.44-6.26a7,7,0,0,0-1.89,1.09,13,13,0,0,0-1.56,2.51,143,143,0,0,1-11,17.67c-2.47,3.31-4.85,6.7-7.24,10.07a15.8,15.8,0,0,1-5,4.67c-1-.74-.5-1.54-.22-2.21a92.07,92.07,0,0,1,7.14-14.7c2.93-4.61,5.74-9.29,8.56-14a17.48,17.48,0,0,0,1-2.21l-.18.17a6.8,6.8,0,0,0,1.67-.88c2.5-2.41,4.93-4.89,7.41-7.32a9.14,9.14,0,0,0,2.79-5.44l-4.2-2.86c-2.09.82-3,2.45-4.18,3.83s-2.59,3-4,4.38c-5.41,5.34-11.49,10-16.64,15.6a17.61,17.61,0,0,1-2.32,1.86c-2.61,2-5.19,4.1-7.86,6.05s-5.14,3.56-8.4,5.81a11.83,11.83,0,0,1,.58-3,32.47,32.47,0,0,1,3-4.5c2.85-3.43,5.81-6.77,8.75-10.13q5.06-5.79,10.15-11.55c1.2-1.36,2.47-2.68,3.61-4.09a5.13,5.13,0,0,0,.61-1.58c-1-1-1.81-.48-2.44-.1-3.55,2.11-7.14,4.17-10.56,6.48-7.4,5-14.72,10.11-22.08,15.16a6,6,0,0,1-1.28.51c-.68-.78,0-1.22.28-1.77,3.49-6.33,8.88-11.07,13.59-16.37a58.39,58.39,0,0,1,10-8.91,57.49,57.49,0,0,0,8.72-7.12c-.32-2-1.71-2.54-3.07-3.13q-7.5-3.28-15-6.59c-5.75-2.56-11.69-4.55-17.63-6.61-5-1.72-9.6-4.39-14.39-6.63-2.09-1-4.14-2.08-6.31-2.86a44.64,44.64,0,0,1-16.84-11.06q-4.35-4.42-8.6-8.94A31.78,31.78,0,0,1,388,266c3.07,0,5.51-.1,7.94-.11a40,40,0,0,1,14.54,2.38c7.88,3,16,5.38,24,7.81a38.07,38.07,0,0,1,10,4.33,51.14,51.14,0,0,0,16.31,7c1.75.41,3.45,1.09,5.3,1.69.41,1.1.84,2.15,1.2,3.22a21.67,21.67,0,0,0,7.7,10.68c2.23,1.69,4.32,3.55,6.83,5.63-3.31.74-5.53-2.13-8.5-1.38,3.52,7.16,8.64,12,16.42,14a114.47,114.47,0,0,0,14.13,2.61c1.63.2,3.33.17,4.9,1.49a22.6,22.6,0,0,1-1.09,2c-2.68,4-5.54,7.84-8,11.94-.89,1.47-3.21,3.33-1.1,5.18,1.73,1.51,3.34-.49,4.77-1.46,2.05-1.39,4-3,6-4.45l2.71-2c-1.17,2.82-2,4.73-2.76,6.66a8.71,8.71,0,0,0-.39,6.23c2.76,1.58,3-1.93,5.14-2.37-.06,4.49-.66,8.94,1.08,13.19a1.66,1.66,0,0,0,2.69-.94c1.13-2.88,2.22-5.78,3.69-9.6.43,1.84.72,2.73.82,3.63.31,2.63.61,5.26.79,7.9a55.45,55.45,0,0,0,3.06,13.5c1.23,3.77,2.56,7.53,3.53,11.37a75.93,75.93,0,0,1,1.66,9.76c.82,7.06,1.33,14.17,2.27,21.21.72,5.4,1.9,10.74,2.92,16.1,1.15,6,2.22,12,3.59,18,1.7,7.41,3.57,14.78,5.53,22.12,2,7.5,4.31,14.93,6.32,22.44a34.88,34.88,0,0,1,1.22,7.82,9.58,9.58,0,0,0,2.64,6.21c.92,1.06,1.87,2.08,3.2,3.55.1-2.49-1.26-3.63-2-5a6.26,6.26,0,0,1-.34-5.28c.71-1.93,1-4.26,3.87-5.07a9.7,9.7,0,0,1,.72,1.6c.92,3.69,1.87,7.37,2.68,11.08,1.4,6.38,5.21,11.36,9.28,16.18a8.65,8.65,0,0,0,2.85,1.9,66.8,66.8,0,0,0,12.43,4.92,75.21,75.21,0,0,1,16.9,7c3.59,2,7.13,4.18,9.09,8.57-8.83-.37-16-4-22-9.65-1.18,1.25-1,2.07-.51,2.77a38,38,0,0,0,2.79,4.1,9.54,9.54,0,0,1,1.87,8.83c-.64,2.72-.88,5.54-1.26,8.33a2.41,2.41,0,0,0,.6,2.25c2-2.29,2.18-2.83,3-9.05.46-3.32.64-6.6-1.22-9.5.73-1.11,1.24-.32,1.74,0A33.62,33.62,0,0,0,623.94,551c7.27-1.61,14.52-3.38,22-3.52q9.67-.19,19.36.22a25.54,25.54,0,0,0,9.76-1.17,42,42,0,0,1,5.21-1.62c6.06-1.28,10.19-5.13,13.61-10q1.85-2.64,3.63-5.33a72.68,72.68,0,0,1,12.77-14.47,49.38,49.38,0,0,1,19-10.35c13.24-3.87,25.92-1.64,38.31,3.23a32.73,32.73,0,0,1,11.53,7.56,117.82,117.82,0,0,1,14.1,16.62,28,28,0,0,1,4.91,15.36c0,.17,0,.33,0,.5-.61,9.9-1.31,19.79-3.22,29.55a23.86,23.86,0,0,1-6.2,12.16c-2.72,2.86-5.08,6.07-8.2,8.85a27.67,27.67,0,0,1-7.1-6.13c-1.88-2.3-3.59-4.75-5.32-7.16-2.25-3.14-4.33-3.58-7.58-1.74-10.5,5.94-21.16,11.62-31.51,17.81-6.69,4-13.58,7.53-20.54,11-1.48.73-3,1.43-4.52,2.17-2.36-1.68-3.34-3.64-2.15-6.39.46-1.05.79-2.16,1.18-3.23-1.86-1-2.75-1-3.15.32-.79,2.58-2.43,5-1,8.16-2.15,0-3.94,0-5.73,0q-5.95.15-11.89.38a9.94,9.94,0,0,0-6.58,3.1,29,29,0,0,0-5.77,7.4c-.32.6-.15,1.46-.26,2.8a11.77,11.77,0,0,0,2-1.48c1.13-1.43,2.18-2.91,3.23-4.4,2.7-3.81,6.12-6,11.34-4.88-.43.58-.68,1.2-1.13,1.48a19.05,19.05,0,0,0-5.35,5.78Q671,634.81,663.17,646c-.16.23-.52.32-.82.5-1-.51-.44-1.43-.53-2.15a10.5,10.5,0,0,1,0-2c.3-3.87-.69-7.45-1.79-11.15-2-6.6-6.32-11.55-10.41-16.72-1-1.27-2.55-2.09-3.81-3.16-4.51-3.84-6.28-8.62-5.08-14.51a18.82,18.82,0,0,1,4.46-9.23,30.76,30.76,0,0,0,2.46-3.56c-1.71-2-2.44-2.23-3.57-.79-4,5.15-7.3,10.64-6.7,17.58a3.22,3.22,0,0,1-.34,1c-1.68.09-1.83-2.23-3.4-2.27-.25.17-.71.35-.7.51a7.4,7.4,0,0,0,.36,2.82,5.82,5.82,0,0,0,2,2.17c4.07,2.7,7,6.55,10.27,10,2.38,2.53,4.75,5.08,7.24,7.5a17.39,17.39,0,0,1,3.46,4.77,32.5,32.5,0,0,1,3.52,17.27c-.56,8.25-1.09,16.51-1.63,24.76-.17,2.63-.35,5.26-.5,7.51a6.62,6.62,0,0,0,.53.81c6.14,5.86,10.62,13.07,16.07,19.49a24.33,24.33,0,0,1,5.47,13.54c.84,7.22-.66,14.17-1.73,21.16-1.33,8.66-2.93,17.29-4.38,25.93a14.71,14.71,0,0,0,0,2.4c1.71.33,1.65-.94,1.8-1.77,1.39-7.48,2.68-15,4.09-22.45.64-3.41,1.45-6.79,2.24-10.17a9.93,9.93,0,0,1,4.48-6.28c2.21-1.44,4-3.54,6.33-4.76s5-1.66,7.48-2.52c4.22-1.46,8.36-3.14,12.62-4.45,7.8-2.39,15-6.09,22.13-9.93,3.25-1.76,5.77-4.88,8.57-7.43a27.12,27.12,0,0,0,2.2-2.53c2.26.23,4.36.57,6.46.61,1.95,0,4,.17,5.66-1,.06-1-.38-1.34-1.14-1.31-2.31.11-4.61.3-6.92.37a6,6,0,0,1-5.48-2.78c-1.22-1.77-2.66-3.39-3.84-5.19a71,71,0,0,0-15.56-16.38c-.48-1.26.82-1.32,1.09-2a3,3,0,0,0,.18-1.89,4.92,4.92,0,0,0-5.18-3.71c-3.25,0-3.81.25-6.13,3-1.41-.57-1.56-1.59-.86-2.77a4.82,4.82,0,0,1,3.24-2.08c2.81-.71,5.59-.31,8.38.1l-.16-.14c2.89,1.79,5.73,3.65,8.69,5.32a10.55,10.55,0,0,0,4.11,1.43c3.87.33,7.77.38,11.67.53,1.64.46,3.16,1.38,4.84,1.49.47-1.07,0-1.64-.66-1.66a42.88,42.88,0,0,0-4.3.27,22.59,22.59,0,0,1-5.92-7.92l3.27-4.65c-.78-1.1-1.59-.89-2.18-.29-1.15,1.16-2.17,2.44-3.4,3.84a19,19,0,0,1-3.12-1.5,10.18,10.18,0,0,0-7.08-1.67,60.72,60.72,0,0,0-13.63,2.45c-4.74,1.45-9.56,2.61-14.37,3.83-1.75.44-3.55.88-5.55-.11a5.83,5.83,0,0,1,.27-2.24,8.4,8.4,0,0,1,2.23-2.6A55.25,55.25,0,0,1,715.9,641c2.83-.9,5.67-1.79,8.44-2.86a53.41,53.41,0,0,1,12-3.18,4.75,4.75,0,0,0,1-.1c6.76-2.55,13.69-1.52,20.62-1.11a5.59,5.59,0,0,1,4.89,2.78c2.23,3.67,4.51,7.32,6.55,11.11a136.29,136.29,0,0,1,9.6,21.76,23.6,23.6,0,0,1,1.24,7.8c0,3.25-.82,6.22-3.27,8.56a18.38,18.38,0,0,0-1.32,1.58,32.38,32.38,0,0,0,.58,3.9,9.93,9.93,0,0,1-2.48,9.66c-3.84,4.33-7.51,8.86-11.73,12.78-11.52,10.69-23.41,21-34.94,31.66-6.44,6-13.05,11.71-20,17.06a118.79,118.79,0,0,1-11.3,8.06c-8.17,4.88-15.64,10.51-21.54,18.07a7.55,7.55,0,0,1-1.26,1,22.45,22.45,0,0,1-2-1.44,33.81,33.81,0,0,0-14.84-7.64c-3.68-.92-7.31-2.07-11-3a7.58,7.58,0,0,1-5-3.61c-3.41-5.65-7.42-10.95-9.6-17.31a25.85,25.85,0,0,0-3-5.14c-6.64-10.48-13.33-20.92-20-31.41-1.85-2.94-3.67-5.91-5.26-9a55.55,55.55,0,0,1-3.44-8.2c-1.83-5.66-3.46-11.39-5.11-17.11a82.36,82.36,0,0,1-3.28-18.54c-.26-4.88-1.67-8.84-5.27-12.3-2.71-2.61-4.79-5.89-7.1-8.92a23.83,23.83,0,0,1-4.85-14.31c-.08-3.63-.52-7.26-.84-10.88a5.25,5.25,0,0,0-.41-1.23,1.36,1.36,0,0,0-2,.9,9.12,9.12,0,0,0-.11,2.94c.36,5.1.76,10.19,1.17,15.51-2.72-.86-4.51-2.84-6.32-4.67s-3.15-3.83-4.72-5.75a19.51,19.51,0,0,1-4.3-12.9c0-1.82-.13-3.63-.26-5.45,0-.28-.32-.53-.66-1.07-.48.32-1.27.57-1.37,1a16.68,16.68,0,0,0-.64,4.39c.25,8.51,3.15,15.82,9.92,21.3,3.34,2.71,6.75,5.34,10.07,8.06a11.86,11.86,0,0,1,2.71,2.82,80.31,80.31,0,0,0,10.36,13.9,5.35,5.35,0,0,1,1.63,3.51c.46,8.81,2.71,17.28,4.72,25.81,1.86,7.9,4,15.71,7.7,23a26.69,26.69,0,0,1,1.16,2.74,3.58,3.58,0,0,1,.09,1c-.17.28-.27.67-.51.81-5.35,2.94-10.37,6.5-16.15,8.62a8.93,8.93,0,0,0-4.3,3.13c-2.38,3.16-5,6.17-7.48,9.24a13.61,13.61,0,0,0-2.2,2.66c-3,6.65-8.46,11.89-10.22,19.1-5.62-.85-11-1.69-16.32-2.46a78.93,78.93,0,0,0-14.31-1.18,61.9,61.9,0,0,1-8.43-.34c-8.7-.86-16.7,1.4-24.36,5.28-8.41,4.26-16.82,8.5-25.21,12.79a30.08,30.08,0,0,0-4.17,2.65c-.35.26-.33,1-.68,2.26,3.06-1.26,5.51-2.12,7.83-3.26,4.3-2.12,8.6-4.26,12.74-6.66a153.88,153.88,0,0,1,16.89-8.3,25.47,25.47,0,0,1,14.46-2.13,114,114,0,0,0,15.34,1c9.81.23,19.4,2,29,4,17,3.48,34,7.2,50.93,10.83,9.85,2.1,19.71,4.18,29.56,6.33a67.2,67.2,0,0,1,21.63,8.36A31.52,31.52,0,0,1,679,810a51.41,51.41,0,0,1-.44,17.77,10.92,10.92,0,0,1-1.34,3.68c-2.34,3.79-4.68,7.61-7.3,11.22-7,9.63-14.19,19.13-21.25,28.72-1.67,2.26-3.18,4.64-4.67,7-7.22,11.5-15.25,22.44-23.19,33.44-8.14,11.28-16.06,22.7-22.64,35-3.59,6.7-6.79,13.61-10.13,20.44-2.83,5.79-5.69,11.57-8.38,17.43-1.79,3.9-3.36,7.91-4.88,11.92a13,13,0,0,0-.6,3.89c-.09,1.82.15,3.66,0,5.46-.46,4.15,1.29,7.4,4,10.29,2.46,2.68,5,5.27,7.54,7.9q14.25,14.88,28.47,29.77a12.06,12.06,0,0,0,5.32,3.43c4,1.24,6.71,4.1,8.53,7.81,2,4.19.09,7.23-4.56,7.12-.49,0-1-.09-1.64-.16-3.69,5.58-9.5,7.23-15.72,7.78-2.17.19-4.25.17-6.11,1.47a4.26,4.26,0,0,1-1.37.54,2.35,2.35,0,0,1-2.88-1.33,26.44,26.44,0,0,1-1.21-3.24,31,31,0,0,1-1-3.83,11,11,0,0,0-5.18-7.48c-3.14-2.11-5.95-4.72-9-7a67.06,67.06,0,0,0-6.55-4.47c-5.71-3.33-11.52-6.51-17.26-9.79a12,12,0,0,0-5.15-1.52,41.46,41.46,0,0,1-6.8-1.18c-1.91-.48-3.66-1.43-5.64.06-.54.41-1.91-.05-2.8-.38a31.8,31.8,0,0,1-8.92-5.29,40.77,40.77,0,0,1-8.15-9.3,25.83,25.83,0,0,1-1.86-4,4,4,0,0,1,.65-4.16c3.44-4.86,6.81-9.77,10.2-14.67q10.71-15.52,21.39-31.07a14.92,14.92,0,0,0,2.13-4.4c3.44-12.76,6.49-25.64,10.25-38.31,3.11-10.48,4-21.09,3.83-31.89,0-1.49-.13-3-.17-4.47-.13-5.14-.37-10.26-3.21-14.89l15.35-30.46a9.07,9.07,0,0,0-2.6-1.38,65.74,65.74,0,0,0-7.91-.61c-12.93-.1-25.76-1.67-38.62-2.74-11.89-1-23.75-1.83-35.69-1.32-1.32.06-2.65,0-4,.12-8.34.78-16.07-1.55-23.55-4.83a29.88,29.88,0,0,0-8-2.36,24.71,24.71,0,0,1-8-2.58c-4.57-2.33-9.24-4.5-13.59-7.19-3.06-1.89-5.68-4.49-8.46-6.82-6-5-8.47-12.06-10.7-19.18-1.38-4.42-2.76-8.85-3.74-13.36-1-4.67-1.54-9.45-2.25-14.19-.17-1.14-.11-2.33-.34-3.46-1-5-.08-9.89,1.09-14.71a163.42,163.42,0,0,1,4.41-15.75c1.59-4.5,3.87-8.76,5.85-13.12A96.6,96.6,0,0,1,428.2,712c2.38-3.58,4.55-7.3,7-10.83,1.79-2.57,3.9-4.92,5.87-7.37,7.75-9.69,15.53-19.36,23.22-29.09,14.17-17.91,28.46-35.72,43.85-52.61,3.66-4,8-7.46,12-11.12,3.68-3.32,7.45-6.55,11.14-9.87a195.67,195.67,0,0,1,16.51-12.7c1.07-.78,2.17-1.52,3.18-2.38a5.24,5.24,0,0,0-.57-8.73c-1.74-1.14-3.52-1.61-5.48-.09-1.1.85-2.57,1.23-4.8,2.25a26.12,26.12,0,0,1,1.2-2.41,49.41,49.41,0,0,0,3.93-5.67c1.42-2.83.91-3.78-2.41-6.07A84.14,84.14,0,0,1,529.41,569c-1.08-2.23-1.21-3.31-.19-5.35a43.76,43.76,0,0,1,2.67-4.17c1.82-2.79,3.52-5.62,3-9.17a13.06,13.06,0,0,0-.44-1.56c-2-.43-3.53.61-4.73,2a49.82,49.82,0,0,0-3.49,4.81c-1.47,2.18-2.87,4.41-4.6,7.08-.32,3.88-.44,8.39-2.37,12.52a72.66,72.66,0,0,1-3.65,6.4,1,1,0,0,1-.88.3c-.4-.19-1-.59-1-.91a40.84,40.84,0,0,1,1-12.31A101.27,101.27,0,0,0,517.43,552c.08-.76,0-1.53,0-3.16a14.4,14.4,0,0,0-1.72,2c-1.47,3-2.88,6-4.3,8.94-1.64,3.43-3.19,6.91-4.93,10.29a24.37,24.37,0,0,1-7,7.81c-.29-2.22.63-3.82,1.21-5.48a222.53,222.53,0,0,0,7.7-26.15,33.34,33.34,0,0,0,.64-4.89,4.1,4.1,0,0,0-.59-1.87c-.11-.23-.53-.3-1.07-.58-.56,1.16-1.17,2.29-1.66,3.48-1.51,3.67-2.94,7.37-4.47,11-1.15,2.75-2.4,5.43-2.7,8.47a6.62,6.62,0,0,1-2.38,4.63,41.89,41.89,0,0,1-.86-13.74,33.64,33.64,0,0,1,5.15-14.35c3.15-5.25,6.23-10.53,9.3-15.83a6.08,6.08,0,0,0,.7-2.31c0-.22-.68-.73-1.06-.74a1.86,1.86,0,0,0-1.26.65c-1.6,1.89-3.2,3.78-4.67,5.77-2.15,2.93-4.26,5.9-6.26,8.93-1.36,2.06-2.56,4.23-3.77,6.38a103.48,103.48,0,0,1-6.31,9.65c-.81-3.46-.11-6.77,3.58-19.23a152.81,152.81,0,0,1,7-18.36c-4.19,2.52-7.46,5.91-10.81,9.17s-6.59,6.86-10.55,11a14.08,14.08,0,0,1,.21-2.62c1.25-3.48,3.45-6.39,5.7-9.25,4-5.07,8-10.08,12-15.14,1.9-2.4,2.15-2.93.29-5.16-1.3-1.55-.58-3.51-1.79-5.32-2.51,1.86-4.87,3.55-6.6,5.93s-3.36,4.89-5,7.34q-3.24,4.69-6.5,9.35c-.36.52-.82,1-1.25,1.49-1.12-.74-.33-1.5-.22-2.16.88-5.38,2-10.73,2.66-16.13a22,22,0,0,1,2.38-7c2-4,4.15-7.91,6.21-11.87.9-1.72,2.08-3.34,2.29-5.26-.85-1-1.64-.84-2.21-.1-1.61,2.1-3.17,4.23-4.66,6.41-2,2.9-12.41,15.44-14.9,17.8-1.22-2.24-1.43-3-.37-4.74,2.75-4.57,4.35-9.59,6.17-14.55,1.41-3.85,3.76-7.35,5.68-11,.92-1.75,1.79-3.54,2.75-5.27.83-1.49.45-2.87-.16-4.28l-.17.12a4.32,4.32,0,0,0,3.77-.5c2.11-1.25,4.22-2.52,6.25-3.9s3.94-2.87,6.11-4.46l.81,2,.12-.2c-.16,0-.39,0-.49.06C490,460,488.25,466.39,488,473.34c-.07,2,1.71,2.85,3.45,1.75,2.23-1.42,4.35-3,6.59-4.39,1.61-1,3.1-2.31,5.41-2.95-.43,2-1.91,2.61-2.87,3.59-1.14,1.17-2.49,2.2-2.72,4,1.61,1.63,2.13,1.87,3.26,1.55a12.36,12.36,0,0,0,5.09-3c.51-.47,1-1.42,2.16-.41-1.2,1.38-2.35,2.76-3.57,4.07A31.69,31.69,0,0,0,496,496c-.14,1.24-.45,2.58.5,3.66a4.75,4.75,0,0,0,4.12-1.52c2-1.7,4.14-3.25,5.16-5.8l.54-.38,2,.29c-.1,1.7-1.5,2.49-2.44,3.52-3.37,3.69-4.79,8.23-5.84,12.94a2,2,0,0,0,.64,1.69,2.44,2.44,0,0,0,1.82-.07,9.79,9.79,0,0,0,1.67-1.05c4.72-2.85,8.59-6.65,12.41-10.58,2.34-2.41,4.51-4.85,5.72-8a10.62,10.62,0,0,1,3.26-4.25c1.7-1.46,3.75-2.57,5-4.56a10.06,10.06,0,0,1,2.41.21c.57.19,1,.8,1.52,1.24,2.4-3.69,2.4-3.69.53-5.7-1.41,1.49-3.62,2.08-4.38,4.34l-5.45,2c1.37-4.31,1.78-4.78,4.81-7.06a9.86,9.86,0,0,0,4.23-6.44c.16-1.06-.11-2-1.76-2.34-2.55,1.53-5.36,3.23-8.2,4.89-.67.39-1.4,1-2.44-.17.5-1,1-2.16,1.64-3.22,2-3.22,4.11-6.38,6.1-9.6a16.15,16.15,0,0,0,1.64-3.55c.12-.37-.52-1-1.13-2.07-2.48,5.95-7.27,7.86-12.57,9.52a15.79,15.79,0,0,1,.5-6.09c.29-1.27.5-2.56.75-3.84Zm22,38.7c-2.2-.12-3.63,1.34-5.1,2.6-1.76,1.5-3.37,3.17-5.14,4.66-1.22,1-2.49,2.12-4.59,1.68.18-1.34.29-2.63.55-3.89a30.77,30.77,0,0,1,1-3.33c.41-1.25.85-2.49,1.31-3.73s1.9-1.81,1.6-3.84a23.36,23.36,0,0,0-6.52,13.35c-.25,1.8-.51,3.59-.69,5.4-.06.57-.3,1.32.91,1.77a43.11,43.11,0,0,0,6.29-5.06c2.75-2.6,5.73-5,8.56-7.48a16.76,16.76,0,0,0,1.79-2.22c2.17.07,2.52.47,1.79,1.95-.41.83-1.67,1.39-.87,3.23,1-1.59,1.92-2.74,2.6-4a2.11,2.11,0,0,0-.18-2.71c-1.19-1-2.06.11-2.93.77C540.62,492.25,540.61,492.65,540.5,492.94Zm-7.89,13.93c-2.89,1.17-3.63,4-4.94,6.41-.69,1.25-1.29,2.82.09,4.12,1.09,1,2.5.65,4.38-.85q3.47-2.77,7.08-5.37a1.36,1.36,0,0,1,2.25.44c-1.25,2-2.52,4.06-3.91,6.08a22.12,22.12,0,0,0-3.61,9.13c-.36,2.21-.14,4.32,2.1,5.62,2.41-.17,3.78-1.88,5.22-3.47,2.43-2.7,4.8-5.45,7.26-8.12a15.08,15.08,0,0,1,2.13-1.64,10.14,10.14,0,0,1-1.15,4.31c-1.4,3-2.89,5.92-4.26,8.91a12.66,12.66,0,0,0-1,3.28c-.09.55.23,1.55.62,1.71a2.74,2.74,0,0,0,2.29-.05,9.38,9.38,0,0,0,2-2.72c.64-1.1.86-2.5,2.34-2.91l-.1-.08c.43,3.2-.54,6.22-1.17,9.28a36,36,0,0,0-.65,3.88,1.66,1.66,0,0,0,1.56,2.07c2.1-.94,3-3,4.13-4.75.79-1.25,1.24-2.78,2.21-3.86a7.94,7.94,0,0,0,1.94-5.9c0-1.6-.23-3.32,1.12-4.47,2.13,1.63,4.19,3.25,6.29,4.82,3,2.27,6.15,4.48,9.19,6.76a11.48,11.48,0,0,1,4.15,5.42,13.94,13.94,0,0,0,2.52,4.17,8,8,0,0,1,1.91,5.43c.09,5.61.43,11.22.71,16.83,0,.35.36.68.63,1.14,1.33-.94,1.29-2.13,1.29-3.25q0-6.7-.05-13.4a13.06,13.06,0,0,0-2.61-7.35,24.82,24.82,0,0,1-2.82-4.6,16.51,16.51,0,0,0-5-6.67,46.18,46.18,0,0,0-6.46-4.57,25.32,25.32,0,0,1-8.94-8.39,16.6,16.6,0,0,0-1.89-2c-.81,4.32-1.53,8-2.19,11.77-.61,3.43-1.71,5-4.78,6.81a5.25,5.25,0,0,1-.12-1.48c.94-4.36,1.92-8.7,2.91-13.05.26-1.12.68-2.21.83-3.35.11-.79-.06-1.66-1.28-1.69-2.45,2.7-3.19,6.61-6.33,9.63.59-5.38,3.86-9.21,5.09-14.23a9,9,0,0,0-2.65.29,10.32,10.32,0,0,0-2.82,2c-3,3.06-5.93,6.2-8.9,9.3-.75.78-1.54,1.52-2.5,2.47-.4-.77-.84-1.21-.77-1.56,1-5,1.66-10.08,5-14.31,2.14-2.73,4-5.7,5.92-8.56.49-.71.81-1.44.11-2.22-.32,0-.71-.08-.93.06-1,.62-1.91,1.29-2.83,2a34.37,34.37,0,0,1-3.51,2.73,45.14,45.14,0,0,0-7.85,5.13c-.57.5-1.32,1.08-2.12.05l2.8-7.27c1.05-.79,1.05-.79.75-2Zm74.12,61.91c-.53-1.31-1.35-1.49-2.11-1a17.88,17.88,0,0,0-3,2.57,62.53,62.53,0,0,0-13.47,22.27c-3.21,9.35-3.17,18.78-.77,28.26.26,1,.54,2.31,2.37,2.33a4.7,4.7,0,0,0,.66-1.61,16.48,16.48,0,0,0-.33-3.43,55.54,55.54,0,0,1-.07-20.16c1.08-6.49,3.19-12.43,7.28-17.6C600.38,576.58,603.52,572.76,606.73,568.78ZM723.36,552.7c-2,1.67-4,3.3-6,5.06-4.88,4.44-9.9,8.75-13.79,14.14a23,23,0,0,0-2.78,4.65,7.69,7.69,0,0,0,3.67,9.23c1.38.64,2.57.42,3-.58.51-1.19-.23-1.94-1.1-2.41-2.85-1.57-2.63-4-1.75-6.45a17.93,17.93,0,0,1,2.8-4.62,62,62,0,0,1,5.19-6c2.68-2.67,5.52-5.18,8.35-7.7a8.87,8.87,0,0,1,2.13-1c2.66,3.08,1.39,6.91,2.56,10,1.39.51,2.21-.18,2.23-1.25a65.56,65.56,0,0,0-.27-7.86C727.39,555.42,725.9,553.74,723.36,552.7ZM616.7,578.48c.43-1.28.89-2.64,1.34-4a51.18,51.18,0,0,1,8.68-16,13.74,13.74,0,0,1,8.67-5.3c2.1-.36,4.25-.47,6.38-.71.82-.09,1.67-.17,1.65-1.32-.23-.21-.44-.56-.68-.59-7.48-.76-14.1.54-18.79,7.22a81,81,0,0,0-8.28,14.64,14.29,14.29,0,0,0-1,4.28C614.55,577.65,615.1,578.6,616.7,578.48ZM568,547l-1,.13c.32,1.4.55,2.83,1,4.19a43.14,43.14,0,0,1,1.63,10.22,11.81,11.81,0,0,1-1.83,7.55c-1.83,2.74-3.54,5.56-5.52,8.19a56.87,56.87,0,0,0-6.55,11.58c-.34.78-.29.8.5,3.2.67-1.41,1.3-2.54,1.74-3.74a38.75,38.75,0,0,1,6.62-10.95,66.6,66.6,0,0,0,6-9.6,11.53,11.53,0,0,0,1.28-7.18A51.08,51.08,0,0,0,568,547Z"/><path class="cls-1" d="M366.12,1039.63c1.05-2.17,3.17-2.75,5.21-3.28a62.31,62.31,0,0,1,7.76-1.58c6.4-.8,12-3.55,17.44-6.76,5.83-3.44,12-6.28,17.3-10.63a18.51,18.51,0,0,1,5.25-2.74,3.87,3.87,0,0,0,2.7-3.24,19.28,19.28,0,0,0,0-6.36c-1.15-5.16-2.61-10.25-4.08-15.34a13.4,13.4,0,0,0-2.06-4.44c-2.88-3.72-4.65-8-6.33-12.29-2.29-5.84-4.3-11.8-6.26-17.76-1.15-3.5-2.26-6.92-5.34-9.3-1.1-.85-2-2.35-1.38-3.45,1.31-2.19-.24-4.21.17-6.17a18.21,18.21,0,0,0-.18-5.85,8.75,8.75,0,0,0-1.91-5c-3-3.44-4-7.89-6.24-11.73a6.61,6.61,0,0,1-.55-2.87c-.08-1.65,0-3.3,0-5-.92-1.07-1.76-2.07-2.63-3-3.12-3.47-3.37-7.39-1.78-11.56,1-2.62,2.08-5.2,3.22-8-1.69-2.88-3.2-5.82-5.06-8.52a26.33,26.33,0,0,1-3.14-6.7,7.53,7.53,0,0,1-.38-2.91c.19-2.47.48-4.94.86-7.39a6.21,6.21,0,0,1,3.2-4.71c4.43-2.58,8.7-5.42,13-8.14,2.26-1.42,4.54-2.75,7.38-2.42a5.55,5.55,0,0,0,4.08-1.5c.52-.4,1-.86,1.51-1.29,2.49-2.13,5.32-3.41,8.65-3a6.75,6.75,0,0,0,5.81-2.1q2.35-2.21,4.78-4.33c.73-.64,1.53-1.19,2.38-1.84,3.51,1.8,6.88,3.53,10.23,5.27,4.71,2.44,9.44,4.75,14.86,5.26a18.83,18.83,0,0,1,4.25,1.31c3.74,1.31,7.43,2.76,11.2,3.95a29.3,29.3,0,0,0,10.26,1.4c4.3-.2,8.6-.1,12.9-.26a192.86,192.86,0,0,1,23.28.9c14,1.18,28,2.08,42.07,3.06,2.31.16,4.63.11,6.94.23A9.05,9.05,0,0,1,568,850a6.54,6.54,0,0,1,1.43,1.1l-12.16,28.49c4.63,14.61,3.94,29.24.79,43.74-2.17,10-5.37,19.78-8.05,29.67-1.21,4.46-2.25,9-3.47,13.44a11.83,11.83,0,0,1-1.65,3.53q-14.4,20.81-28.88,41.56c-1.13,1.63-2.13,3.37-3.38,4.9a4.93,4.93,0,0,0-.65,5.56c4.94,10.72,11.5,19.77,24,22.39.76.16,1.91.45,2.31.07,1.74-1.66,3.4-.73,5.09-.15.91.32,1.78.78,2.74,1.21a7.68,7.68,0,0,1-.85,1.38c-1.11,1.11-2,2.36-1.42,3.95a6.44,6.44,0,0,0,3.48,4c1.36.52,3,.53,3.93,2-1.67,1-3.51.84-5.3.85a24.74,24.74,0,0,0-8.76,1.13,11.44,11.44,0,0,1-5.36.25c-11.29-1.61-22.57-3.34-33.85-5.08a8.67,8.67,0,0,1-3.73-1.2c-2.8-2.06-5.5-1.85-8.34-.27a14.88,14.88,0,0,1-1.41.6,7.07,7.07,0,0,1-1.39-.36,6,6,0,0,0-6.13.32c-3.19,2-6.53,2-10,1-2-.57-4.13-.89-6.42-1.37a4,4,0,0,1,.79-4.34q2-2.51,4.1-5a16.21,16.21,0,0,0,3.43-5.95,13,13,0,0,1,2.31-3.75c1.08-1.46,2.26-2.86,3.48-4.21a4.51,4.51,0,0,0,1-4.85c-2.77-.63-5.74-.1-8.65-.37s-5.59-.62-8.38-.94c-3-.34-5.91-.71-8.88-1-2.77-.26-5.47-1.39-8.48-.72a7.26,7.26,0,0,0-.9,1.06,12.1,12.1,0,0,1-8.07,5.9,60.41,60.41,0,0,0-17.21,7.5,8.36,8.36,0,0,0-2.39,1.75c-2,2.64-4.61,2.9-7.92,2.29l-4.36-5.64c-4.51,0-9,0-13.41,0a7.41,7.41,0,0,0-2.35.65c-1.08.4-2.16.84-3.2,1.34a26.4,26.4,0,0,1-13.42,2.9,12.6,12.6,0,0,0-2,.16Z"/><path class="cls-1" d="M326.72,412.52a19.7,19.7,0,0,1,1.4-2.1c5-5.49,10-11.06,15.17-16.4,2.76-2.83,5.91-5.29,8.94-7.85,11.28-9.51,23.58-17.63,35.69-26,1.63-1.13,3.31-2.19,4.91-3.37.9-.66,1.68-1.5,3.06-2.75-1.23-.12-1.82-.35-2.27-.19a35.66,35.66,0,0,0-4.1,1.75c-10.32,5.23-20.65,10.44-30.92,15.77-5.28,2.75-10.38,5.82-15.63,8.62a120.9,120.9,0,0,1-24.23,10.06,20.79,20.79,0,0,1-3.9.68,36.3,36.3,0,0,0-14.57,4.56,16.51,16.51,0,0,1-9.43,2.35c-2.39-.18-4.84.47-7.91.83a12.53,12.53,0,0,1,1.67-2.31,123,123,0,0,1,9.83-7.51c8.5-5.43,17.16-10.61,25.75-15.9,2.67-1.65,5.43-3.19,8-5,9-6.52,19-11.46,28.88-16.37,4.43-2.19,9.21-3.66,13.8-5.53q5.05-2.06,10-4.33c1.15-.52,2.42-1.07,2.87-2.89a4.91,4.91,0,0,0-1.67-.58,14.15,14.15,0,0,0-3.39.54c-18.66,5.71-37.14,11.93-55.32,19a54.24,54.24,0,0,0-13.48,7.27A40,40,0,0,1,302,369a8.64,8.64,0,0,1-8.15-.11c-4.79-2.81-9.78-2.56-14.91-1.61-.48.09-1,.07-2.19.15,1.28-.86,2-1.42,2.73-1.83,13.28-7.11,27.28-12.68,40.92-19,15.77-7.3,32.07-13.32,48-20.12,9.11-3.88,17.82-8.69,26.68-13.13,1.27-.63,2.61-1.36,3-3.14-1.64-.48-2.69.56-3.76,1.16A269.82,269.82,0,0,1,368,324.13c-2.12.91-4.27,1.78-6.44,2.56A34.74,34.74,0,0,1,347,328.8c-4.62-.36-9.24-.81-13.86-.94-6.94-.19-13.9-.26-20.84-.12s-13.47-.74-19.76-3.7c-2.78-1.31-5.73-2.28-9.24-3.65a56.1,56.1,0,0,1,14.9-2.13q10.17-.11,20.35,0A95.08,95.08,0,0,0,337.68,316c4.2-.83,8.46-1.41,13.23-2.18-3.14-1.66-6.2-1.64-9.06-2.36-3-.76-6.12-1.41-9.22-1.95-3.26-.57-6.54-1-9.82-1.42q-4.67-.6-9.36-1.05c-3.13-.3-6.26-.55-9.4-.74s-6.22-.25-9.31-.37a8.92,8.92,0,0,1-.07-1.19c.31-3.2-.09-3.63-2.92-3.28-8,1-15.82.23-23.21-3.38-3.71-1.81-7.53-3.41-11.24-5.22a7.1,7.1,0,0,1-3.45-2.51,18.45,18.45,0,0,1,2.2-.17c2.64.16,5.31.18,7.91.6,4.57.73,9.12,1.57,13.63,2.61a44.1,44.1,0,0,0,20.64-.54,69.3,69.3,0,0,1,7.77-1.57,38,38,0,0,1,6.42-.06c3.63.17,7.24.6,10.87.69,8.76.23,17.5-.32,26.24-.88,2.79-.18,5.61.19,8.42.25.92,0,1.85-.13,2.72-.19a1.51,1.51,0,0,0-1.39-1.92c-3.58-.67-7.14-1.37-10.73-2-9.46-1.56-18.94-3-28.39-4.61-12.75-2.13-25-6.07-37.4-9.75-5.54-1.65-11-3.69-16.42-5.6-3.87-1.35-6.78-4-9.43-7.05a20.57,20.57,0,0,1-2.13-2.74c-2.36-3.83-5.41-6.65-10.06-7.32-.21,0-.36-.48-.56-.77.45-1.31,1.54-.91,2.41-.78,4.91.73,9.81,1.52,14.71,2.3,12.73,2,25.45,4.16,38.21,6,6.87,1,13.8,1.64,20.71,2.38q16.53,1.76,33.08,3.42c9.05.91,18.11,1.84,27.18,2.61a7.68,7.68,0,0,1,6.19,3.23c5.31,7,11.88,12.89,18.76,18.36a37.33,37.33,0,0,0,7.28,4.22C420.73,295,428.77,299,437,302.4A159.51,159.51,0,0,0,453.95,308a79.54,79.54,0,0,1,14.52,5.69c.37,1.32-.55,1.68-1.12,2.18-5.1,4.46-10.3,8.82-15.34,13.36A105.92,105.92,0,0,0,437.38,346a29.79,29.79,0,0,0-3,5.65,1.66,1.66,0,0,0,2.17,2.22,16.47,16.47,0,0,0,3.55-1.67,76.92,76.92,0,0,0,11.52-8.58c4.07-3.67,9.14-5.68,13.75-8.69.59,1.61-.33,2.25-.9,2.92-4.27,5.06-8.62,10-12.87,15.12-1.8,2.15-3.48,4.4-5.1,6.7s-1.91,4.59.77,6.64c-2.19,2.75-4.21,5.35-6.29,7.89-6,7.3-12,14.56-18,21.87-1.67,2-3.13,4.27-4.77,6.34-3.49,4.4-7,8.76-10.56,13.14-1.87,2.32-3.92,4.52-5.56,7-5.31,8-10.73,15.91-15.58,24.17-3.36,5.73-6.72,11.23-11.91,15.59-3.39,2.85-6.15,6.46-9.21,9.72-.66.7-1.4,1.34-2.18,2.08-.13-.52-.35-.87-.26-1.12a89.28,89.28,0,0,1,8.29-18,457.56,457.56,0,0,0,24.1-42.78,94.11,94.11,0,0,1,15.36-22.45q14-15.15,27.81-30.39a9.77,9.77,0,0,0,1.48-1.95c.17-.33-.09-.88-.21-1.72a15.16,15.16,0,0,0-2.61,1.53c-3.17,2.91-6.23,5.93-9.4,8.84q-6.21,5.71-12.51,11.32a16.42,16.42,0,0,1-3.15,2.41c-5.43,2.86-9.2,7.52-13.08,12-5.62,6.52-11,13.22-16.55,19.81-1.91,2.28-3.89,4.52-6,6.66-9.3,9.65-18.45,19.46-28.58,28.27a82.69,82.69,0,0,1-17.16,11.74c-1,.51-2.11.92-3.1,1.35-1-.79-.49-1.56-.15-2.26,2-4.14,3.84-8.45,6.25-12.37A444.35,444.35,0,0,1,366,398.58c4-5,8.48-9.73,12.85-14.47,5.61-6.08,10.79-12.55,17-18.06,5.08-4.49,10.13-9,15.19-13.53,6.8-6,13.89-11.77,20-18.6a34.25,34.25,0,0,0,2.39-3.14c.14-.2,0-.6,0-.91-.41,0-1-.11-1.19.11-4.7,4.65-9.36,9.35-14,14a19.31,19.31,0,0,1-2.22,2c-8.85,6.45-16.79,14-24.91,21.26-7.87,7.08-15.2,14.77-23.69,21.15-2.51,1.89-5,3.8-7.65,5.51-6.8,4.41-13.62,8.79-20.54,13-3.09,1.89-6.4,3.44-9.66,5.06A12.47,12.47,0,0,1,326.72,412.52Z"/><path class="cls-1" d="M233.59,90.3c.74-1.38,1.69-2,2.87-1.06,2.18,1.77,4.26,3.67,6.36,5.55,8.25,7.41,16.46,14.86,24.74,22.24,2.47,2.2,5.07,4.25,7.68,6.29q26.41,20.63,52.83,41.23c3.78,3,7.36,6.17,11.15,9.11,7.06,5.47,14.21,10.82,21.32,16.22q13.43,10.21,26.86,20.44c7.88,6,15.7,12.15,23.62,18.13a14.36,14.36,0,0,1,4.53,5.13c1.17,2.37,2.51,4.65,3.79,7a21.93,21.93,0,0,0,4.94,6.14c6.14,5.29,12.18,10.7,18.25,16.08.6.53,1.12,1.13,2.33,2.37-5.08-.82-8.9-2.79-13-3.65s-7.7-2.7-12.35-3.33c2,6.11,6.66,9.21,10.6,13.49a6.32,6.32,0,0,1-3.93-.48c-6-2-11.88-4.08-17.89-5.89a44,44,0,0,0-9.21-1.75c-6.6-.51-13.22-.92-19.83-.95-10.13,0-20.11-1.45-30.13-2.66-7.88-1-15.79-1.72-23.69-2.52-6.91-.7-13.84-1.27-20.74-2.06a13.4,13.4,0,0,1-4.64-1.59c-6.56-3.51-13.18-6.94-19.55-10.77a131.87,131.87,0,0,0-23.68-11.32,17.36,17.36,0,0,1-8.74-6.14c-2.33-3.2-5.07-6.11-7.64-9.14a11.5,11.5,0,0,0-5.2-3.61c-3.76-1.27-7.44-2.75-11.14-4.18a26.18,26.18,0,0,1-5.2-2.35c-.05-1.11.45-1.47,1.19-1.4a12.56,12.56,0,0,1,2.41.48c23.25,7,46.63,13.64,69.74,21.15,24.83,8.07,49.85,15.6,74.78,23.37l29.81,9.3c1.39.43,2.8.82,4.41,1.29-.65-2.27-2.34-2.71-4-3.24-4.39-1.45-8.76-3-13.17-4.36q-32.17-10.09-64.35-20.13a23.46,23.46,0,0,1-4.12-1.66c-13.1-7.07-26.23-14.09-39.24-21.31a107.37,107.37,0,0,1-22.15-15.83,47.55,47.55,0,0,1-9.44-12.66,92.7,92.7,0,0,0-4.67-8.15c-3.18-4.84-6.6-9.52-9.78-14.35a10.25,10.25,0,0,0-4.45-3.78c-2.39-1.1-4.57-2.54-7.12-3.92a2.19,2.19,0,0,1,2.83-.5,76.72,76.72,0,0,1,14.74,7c14.92,8.89,30,17.49,45,26.27,9.84,5.77,19.53,11.8,29.44,17.45,9,5.16,18.29,10,27.44,14.95,12.37,6.73,23.94,14.7,35.67,22.45,10.47,6.92,21.19,13.53,32.7,18.69,3.58,1.6,7,3.69,11.26,4.7-.37-1.55-1.52-1.88-2.38-2.36-6.94-3.86-14-7.52-20.82-11.55-9.26-5.46-18.36-11.19-27.52-16.82-10.85-6.67-21.67-13.39-32.54-20-7.82-4.77-14.58-10.87-21.41-16.87-3.73-3.28-7.36-6.66-11-10a158.43,158.43,0,0,1-12-12.52c-5-5.73-10.34-11.17-15.65-16.62a50,50,0,0,1-7.36-9.93,263.9,263.9,0,0,1-17.74-37.67,18.71,18.71,0,0,0-5.32-7.59C240.45,96.93,237,93.55,233.59,90.3Z"/><path class="cls-1" d="M583.91,983.05a33.91,33.91,0,0,1,1.36-3.22c3-5.51,6.11-11,9.13-16.49a20.41,20.41,0,0,0,1.54-3.64,54.42,54.42,0,0,1,6.19-12.93c5.34-8.36,10.86-16.62,15.92-25.15s11.08-16.44,16.87-24.49c9.06-12.62,17.75-25.52,26.75-38.19,3.63-5.12,7.72-9.9,11.49-14.93,2.18-2.9,4.16-6,6.17-9,.9-1.36,1.66-2.83,2.47-4.22a16,16,0,0,1,3.59,0c5,1.24,8.94-.62,13-3.75-1.46-1-2.41-.33-3.35.19a12,12,0,0,1-8.15,1.35,13.64,13.64,0,0,1-2.38-.64,16.84,16.84,0,0,1-2-1.05c.15-1.48.19-2.95.46-4.37a37.87,37.87,0,0,0-1.22-19.09,16.36,16.36,0,0,0-3-5.63,55.09,55.09,0,0,1-3.22-4.67A41.47,41.47,0,0,1,692,776.4c2.08,2.89,5.23,3,8.35,2.56,6.67-1,13.2-.21,19.69,1.17a30.64,30.64,0,0,1,17.13,10.36c-1,2-2.82,3-4.46,3.93a7.87,7.87,0,0,0-4.08,6.88c-.1,1.65-.38,3.29-.56,4.93a48.31,48.31,0,0,1-5.74,18.33c-1.76,3.19-1.14,5.63,1.28,8,.12.11.22.25.33.37,3.58,3.72,8,3.43,10.84-.87,2.45-3.73,4.75-7.56,7-11.41,1.34-2.29,2.47-4.51,5.37-5.46,1.59-.52,2.8-2.21,4.28-3.45l4.6,5c.62,1.46-.08,3.19-1,4.75a82,82,0,0,1-5.36,8.32c-4.63,6-9.45,11.91-14.21,17.84a22.9,22.9,0,0,1-3,3.34,12.74,12.74,0,0,0-4.38,7.56,5.25,5.25,0,0,1-3.28,4c-8.54,3.86-15.62,9.85-22.84,15.65-7.6,6.11-15.44,11.93-23,18.07-6,4.89-11.91,10-17.71,15.15-6.18,5.5-12.11,11.26-18.28,16.77-5.74,5.13-10.23,11.24-14.42,17.6-1.91,2.9-3.57,5.95-5.41,8.89-2.57,4.12-2.49,8.17.46,12,4.2,5.43,7,11.58,9.49,17.89,1.66,4.14,3.59,8.18,5.16,12.35a25.91,25.91,0,0,1,1.56,6.72c.36,4,2.33,6.31,6,7.61,3.27,1.15,6.4,2.69,9.67,3.86,2.8,1,4.51,2.86,4.7,5.76.17,2.62,1.62,3.82,3.84,4.52a9.46,9.46,0,0,1,1.42.44,3.4,3.4,0,0,1,1.86,3.7c-.43,2.57-3.7,6.06-6.25,6.49a5.8,5.8,0,0,1-2.42-.27c-4.13-1.16-8.33-2-12-4.56a5.48,5.48,0,0,0-6.1-.35c-2.35,1.51-4.74,1.31-7.17.94a35.66,35.66,0,0,1-15-6.08,6.16,6.16,0,0,1-2-2.17c-1.56-3.09-3.37-6.12-3.55-9.71-.13-2.68-1.57-4.53-3.46-6.29-7.37-6.89-14.66-13.87-22-20.83C586.29,985.55,585.17,984.34,583.91,983.05Z"/><path class="cls-1" d="M485,340.79a7.31,7.31,0,0,0-2,1.24c-4.36,5.41-8.7,10.83-11.93,17A60.11,60.11,0,0,0,465,377.32a10.43,10.43,0,0,0,0,1.76c1.42.93,2.43.4,3.41-.25,2.55-1.67,4.26-4.14,6.07-6.49.89-1.15,1.63-2.42,2.64-3.94,1.12,1.13.65,2.36.95,3.33a2.08,2.08,0,0,0,2.69,1.48,17.46,17.46,0,0,0,3.79-2.28,60.31,60.31,0,0,0,4.61-4.52c3.2-3.34,6.35-6.72,9.55-10.06.28-.29.78-.36,1.67-.75-1.72,5.44-3.8,10.25-5.61,15.16-1.14,3.1-2.11,6.26-3,9.43a9.25,9.25,0,0,0,1.48,8.14c5.71-3.79,8.25-10.25,13-15.28a6.4,6.4,0,0,1,.33,1.71c-.57,3.09-1.38,6.15-1.73,9.26a9.25,9.25,0,0,1-3.62,6.22c-4.25,3.68-8.38,7.51-12.65,11.17-3.81,3.26-6.71,7.26-9.67,11.12,1.28,2.83,1.27,2.78,3.5,2.36a28,28,0,0,0,7.78-3.13c1.56-.83,3.17-1.58,4.86-2.43.47,1.34-.43,1.71-.82,2.28a16.54,16.54,0,0,1-1.33,1.47c-2.51,2.85-5.18,5.54-6.57,9.24-.49,1.31-1.76,2.33-2.71,3.46a3.62,3.62,0,0,1-.79.59,49.75,49.75,0,0,0-14.55,14.69,22.53,22.53,0,0,1-6.29,6.26c-1.89,1.33-3.72,2.78-5.69,4C450.18,455,445.1,460,440.08,465c-4.32,4.34-8.6,8.71-12.91,13.07a26.66,26.66,0,0,1-3.21,3.1q-11.5,8.21-23.09,16.28a9.23,9.23,0,0,1-3.7,1.28c.56-1.27.8-2,1.18-2.64a100.11,100.11,0,0,1,15.13-19.57c6.71-6.85,13.18-14,19.69-21,4.83-5.23,9.55-10.55,14.33-15.82a22.46,22.46,0,0,0,4.4-6.09c-2.62-.34-4.05,1-5.47,2.37-4.49,4.4-9,8.82-13.48,13.19-1.78,1.72-3.69,3.31-5.51,5-3.52,3.26-7.09,6.46-10.5,9.83-4.47,4.42-8.69,9.1-13.23,13.44a80.46,80.46,0,0,1-15.11,11.21c-2.85,1.66-5.59,3.52-8.41,5.24-.64.39-1.2,1.24-2.42.55,1.36-2,2.62-4.11,4.06-6,8.92-12,19.49-22.49,30.73-32.31,5.48-4.79,10.87-9.68,16.35-14.47,1.74-1.52,3.67-2.83,5.43-4.32a18.5,18.5,0,0,0,2.31-2.53c.13-.16,0-.66-.17-.88a1.06,1.06,0,0,0-.82-.43,5.4,5.4,0,0,0-2.24.84c-4.12,3.65-9,6.15-13.58,9.1-4,2.6-8,5.32-12.49,7.08a38,38,0,0,0-4.27,2.51c-1.25.69-2.57,1.26-4.42,2.15a5.77,5.77,0,0,1,2.45-3.51c12.07-9.85,23-20.92,34.31-31.6,4.81-4.54,9.65-9.06,14.61-13.43a92.23,92.23,0,0,0,9.55-10.07,3.75,3.75,0,0,0,.43-1.3c-.94-.94-1.56-.23-2.12.3-6.14,5.79-12.32,11.54-18.38,17.42-13.31,12.9-26.59,25.84-40.64,37.93-2,1.72-4.12,3.31-6.27,4.85a13.9,13.9,0,0,0-3.74,3.88c-1.79,2.81-4.56,4.5-8,6.62a30.76,30.76,0,0,1,1.34-4.91A85.69,85.69,0,0,1,394,439.6a32.23,32.23,0,0,0,2.8-4.09c3.84-7,8.92-13.07,14.08-19.14,8-9.45,15.65-19.26,23.3-29,4.79-6.12,9.36-12.42,13.9-18.74a31.49,31.49,0,0,1,6.62-6.63c3.41-2.61,6.69-5.39,10-8.1.38-.31.72-.69,1.12-1,8.57-6.34,14.92-15,22.82-22,1.21-1.07,2.2-2.47,3.76-2.91,1,.6.59,1.27.26,1.72-2,2.67-4,5.27-6,7.93-.76,1-2,1.84-1.79,3.35Z"/><path class="cls-1" d="M402.13,207.44c-2.08.58-2.7,2.07-3.19,3.93,2.78,3.78,8.27,5.31,9.91,10.86a10.57,10.57,0,0,1-5-2.59c-8-6.14-15.95-12.37-24-18.43S363.33,189,355,183c-13-9.43-25.5-19.5-37.8-29.8-4.16-3.49-7.74-7.69-11.51-11.64-13.95-14.59-27.83-29.25-41.82-43.8a23.87,23.87,0,0,1-5.38-8.79,27.47,27.47,0,0,1-1.09-3.29c-1.92-8.91-5.5-17.33-7.82-26.11a21.08,21.08,0,0,0-6.47-10.9c-2.11-1.85-4.07-3.88-6-5.89A13.71,13.71,0,0,1,235,40a2.46,2.46,0,0,1,0-1.86c.2-.53.82-.89,1.39-1.47a44.39,44.39,0,0,1,7.17,6.3c5,4.85,9.71,9.95,14.73,14.76,6.69,6.41,13.51,12.68,20.34,18.94,7.93,7.27,16,14.42,23.86,21.72,2.42,2.24,4.5,4.84,6.76,7.25s4.45,4.91,6.86,7.18q19.16,18,38.41,36c8.1,7.56,16.17,15.17,24.38,22.62,6.86,6.22,13.84,12.32,20.87,18.35,12.44,10.66,25,21.22,37.44,31.83a7.53,7.53,0,0,0,.75.64c6.08,3.9,9.44,9.95,12.87,16a116.8,116.8,0,0,0,6.7,9.83c1.87,2.64,3.84,5.21,6.25,8.47a9.82,9.82,0,0,1-3.78-2.68c-6.54-5.83-13-11.8-19.63-17.51-4.26-3.66-8.8-7-13.26-10.42-6.69-5.13-13.43-10.21-20.14-15.32C405.34,209.43,403.88,208.06,402.13,207.44Z"/><path class="cls-1" d="M745.52,133.33c-.92,2.39-1.38,3.77-2,5.08-7.12,15.84-13.38,32-19.5,48.28-6.82,18.1-13.62,36.2-20.16,54.4-3.86,10.73-6.59,21.83-9.23,32.92a7.46,7.46,0,0,0,0,4.28c1.22-.59,1.34-1.64,1.67-2.52,2.11-5.57,4-11.24,6.32-16.7a98.56,98.56,0,0,1,7.14-14.14,71.67,71.67,0,0,0,9.47-23.28A12.75,12.75,0,0,1,720.7,218c-.4,8.71-.48,17.42-1.95,26q-1.25,7.33-2.65,14.64a24.46,24.46,0,0,0-.24,8.39,9.7,9.7,0,0,1-1.47,7.5,22.28,22.28,0,0,0-2.76,6.34c-2.86,9.67-5.53,19.4-8.38,29.07a10.88,10.88,0,0,0,.09,7.37c-5.94,10.06-11.23,20.46-17.5,30.4a20,20,0,0,1,0-2.77c1.13-8,2.64-16,3.38-24.05a182.46,182.46,0,0,1,3.11-20.58c.75-3.61.5-4.87-1.24-8.5-1.46.31-2.14,1.42-2.72,2.64-3,6.42-6.43,12.76-8.11,19.68a137.36,137.36,0,0,0-2.7,17.12,145.75,145.75,0,0,1-3.46,20.1,9.58,9.58,0,0,1-1.17-2.2c-.73-4.23-1.5-8.47-2-12.73a69.87,69.87,0,0,1-.27-7.93,15,15,0,0,0-1.27-6.75,9.74,9.74,0,0,1-.82-3.32,410,410,0,0,1-2-46.57c.12-6.45,0-12.91.3-19.35.84-16.18,1.76-32.37,4.24-48.41.48-3.1.91-6.22,1.3-9.33a18.75,18.75,0,0,1,3.45-8.66c4.8-6.72,5.48-6.4,5.85-17.88q.29-8.92.94-17.83a37.08,37.08,0,0,1,1.36-6.25c.09-.37.61-.63,1.32-1.3.08,1.38.19,2.3.18,3.21-.06,8.11,0,16.22-.26,24.32-.23,7.16.78,14.19,1.58,21.25.33,3,.65,5.92.7,8.89.13,6.45.08,12.91.11,19.36,0,8.93.16,17.83,1.6,26.71,1,6.34,1.24,12.8,1.82,19.23.86-.09,1-1,1.16-1.75,2.33-10.32,5-20.6,6-31.13,1.3-13,3.52-25.88,5.16-38.83,1.57-12.44,7.29-22.86,16.31-31.52,4.77-4.58,9.52-9.19,14.2-13.87a18.36,18.36,0,0,0,2.53-3.61c1.36-2.27,2.58-4.62,4-6.88A12.46,12.46,0,0,1,745.52,133.33Z"/><path class="cls-1" d="M406.12,156a24,24,0,0,0,1.65,3.52q12.53,18.48,25.14,36.9c1.2,1.76,2.32,3.58,3.52,5.46-1.39.91-1.78-.48-2.51-.8a17.4,17.4,0,0,1-2.09-1.29c-2.25,7-3.18,4.62,2,15.25-1.17.71-1.77-.38-2.38-.89-3.81-3.18-7.59-6.39-11.31-9.68-15.73-13.93-31.37-27.94-47.16-41.8a55.42,55.42,0,0,1-13.54-16.89c-6.73-13.46-13.64-26.82-20.48-40.22-5-9.72-9.89-19.45-13.76-29.67Q320.76,64,316.51,52.12a41.15,41.15,0,0,1-2.37-18.05c.6-6-.63-11.87-1.35-17.77a9.06,9.06,0,0,0-1.44-3.12c-1.49-2.58-2.94-5.19-4.6-7.65A4.66,4.66,0,0,1,306.54,0c1.38-.3,1.66.92,2.14,1.65,4.37,6.63,8.66,13.31,13,19.95,7.61,11.62,15.28,23.2,22.86,34.84,2.07,3.18,4,6.45,5.87,9.77,6.91,12.43,13.59,25,20.67,37.32,4.2,7.31,8.88,14.33,13.52,21.38,6.45,9.81,13,19.52,19.63,29.24a12.53,12.53,0,0,0,2,1.92Z"/><path class="cls-1" d="M632,474.9l-5.21,1.22a8.83,8.83,0,0,1,1.09-1.95c3.43-3.11,6.85-6.23,10.36-9.25,2.51-2.16,5.15-4.16,7.7-6.27a7.9,7.9,0,0,0,1.65-1.8,1.8,1.8,0,0,0-.09-1.35,1,1,0,0,0-.84-.35,12.26,12.26,0,0,0-2.35.68c-2,.83-3.95,1.71-5.91,2.59a35.55,35.55,0,0,1-11.88,3.47,29,29,0,0,1,3.06-2.69c4.46-2.85,9-5.6,13.45-8.43a55.51,55.51,0,0,0,5.28-3.68c.43-.35.32-1.37.55-2.55-6.29,1.13-11.83,3.06-17.53,4.63,4.25-5.27,10.63-7.57,15.36-12.18,3.08,1.9,4.11,5.13,6.43,7.16.92-.91.21-1.54-.2-2.18a89.19,89.19,0,0,1-8.5-15.68,30.1,30.1,0,0,1-2.27-11.59,72,72,0,0,0-3-22.53c-1.61-5.17-1.65-7.05-.79-13.56.86-.32,1.2.32,1.48.89a46.83,46.83,0,0,1,4.62,13,35.2,35.2,0,0,0,1.26,5.3c2.15,6.42,3.2,13.18,6,19.4a40.31,40.31,0,0,0,2.46,4.85c.34.55,1.26.73,2.16,1.22.7-3.76-.35-7-.84-10.17-1.41-9.15-3.2-18.25-4.4-27.42-.73-5.56-.69-11.22-.91-16.84-.14-3.64,0-7.29-.23-10.92-.35-4.66,1.54-8.66,3-12.76,1.46,0,1.43,1,1.48,1.67.87,10.27,3.52,20.19,5.92,30.15a84.18,84.18,0,0,1,2.38,23.12c-.05,1.32-.05,2.64,0,4,0,.29.28.58.53,1.07.52-.39,1.28-.66,1.44-1.13a9.08,9.08,0,0,0,.37-2.92c-.06-9.12-.58-18.2-2.74-27.1a28.61,28.61,0,0,1-.81-7.86q.56-15.63,1.06-31.26c.11-3.47.14-6.95.23-10.42a8.3,8.3,0,0,1,1.55-5.41,8.36,8.36,0,0,1,4.31,6c.33,1.78.42,3.61.61,5.42.79,7.57,1.6,15.13,2.34,22.7.81,8.28-.08,16.54-.33,24.8-.11,3.47-.3,7-.24,10.42,0,1.87,0,3.9,1.49,5.41,1.42-.59,1.18-1.69,1.19-2.58,0-5.13,0-10.26,0-15.39,0-2.48.08-5,0-7.45a64.91,64.91,0,0,1,2.64-19.08,102.39,102.39,0,0,0,3.27-18.54,93.83,93.83,0,0,1,1.21-10.34,94.92,94.92,0,0,1,3.32-11.92c1.3-3.74,3-7.33,4.61-11a10.79,10.79,0,0,1,.92-1.41c.89,3.15,1,3.41.57,5.47-2.59,12-3.33,24.25-4.92,36.38a223.46,223.46,0,0,1-4.11,24.45,88.21,88.21,0,0,0-2.37,23.15c0,1-.08,2.06,1.41,2.2.74-1.73.37-3.57.54-5.36.53-5.43,1-10.87,1.6-16.29a39.52,39.52,0,0,1,3.35-11.37,291.12,291.12,0,0,1,17.36-32.88,20,20,0,0,1,1.2-1.62c.73,1,.17,1.78-.09,2.45q-8.58,21.94-17.24,43.85a13.11,13.11,0,0,0-.82,2.33c-.07.37.31.82.47,1.18,1.36.13,1.78-.89,2.44-1.55.92-.93,1.71-2.3,2.83-2.67,3.57-1.19,6.11-3.84,9-6,.9.92.28,1.58-.18,2.23l-17.93,25.61a224.82,224.82,0,0,0-20.55,35c-.15.34.14.88.29,1.66,2.33-1,3.72-2.93,5.53-4.23s3-2.93,5-3.67c.19.35.38.53.34.63-2.44,6.11-4.08,12.59-8.09,18a33.78,33.78,0,0,0-5.6,13.14c-.5,2.26-1.11,4.49-1.64,6.75a56.3,56.3,0,0,0-1.43,11.3q-.48,16.38-1.36,32.74c-.22,4-1,7.87-1.52,11.81-.35,2.67-1,5.23-3.08,7.13a4,4,0,0,0-1.09,3.65,9.83,9.83,0,0,1-2.54,7.28c-2.94,3.58-5.68,7.32-8.59,10.93-1.66,2.06-3.48,4-4.32,6.59-.05.15-.12.38-.24.42-.58.22-1.24.64-1.74.51a1.76,1.76,0,0,1-1-1.35,11.08,11.08,0,0,1,2.13-6c1.78-2.59,3.5-5.23,5.45-7.69a25.89,25.89,0,0,0,6-17.92,22.93,22.93,0,0,1,2-10.59c1.46-3.32,2.65-6.78,3.78-10.23.6-1.83,1.38-3.79,0-5.69a2,2,0,0,0-2.81,1.25c-2.72,5.84-5.49,11.66-8.18,17.52-2.83,6.16-5.57,12.35-8.39,18.51a39.24,39.24,0,0,1-2.11,3.38,33.43,33.43,0,0,1,0-3.39,29.6,29.6,0,0,1,4.2-12.08,22.46,22.46,0,0,0,2-4c.17-.45-.22-1.12-.5-2.3-5.29,5.38-9.9,10.67-16.28,15.26a27.49,27.49,0,0,1,3.81-10.93,59.07,59.07,0,0,1,6-7.89c4-4.59,8.29-9,12.44-13.49,2.47-2.67,4.9-5.38,7.35-8.06.45-.49.94-.94,1.35-1.45,1.2-1.52,1.4-2.87.61-3.54-1.19-1-2.22,0-3.21.36-3.9,1.5-7.23,4-10.61,6.36L631,487.08c-1.23-.83-.41-1.36-.07-1.71,3.4-3.62,6.87-7.17,10.27-10.79,2-2.17,4-4.41,5.94-6.67a1.85,1.85,0,0,0,.1-2.65c-.21,0-.42-.13-.53-.07-3.48,2.08-7.14,3.9-10,6.9L637,472a7.06,7.06,0,0,0-5.17,3.14Z"/><path class="cls-1" d="M784.94,835.79c-4.08,4.93-8.25,10.06-12.51,15.1-2.13,2.52-4.45,4.89-6.69,7.32-3.27.39-6.54.73-9.79,1.21a22.54,22.54,0,0,0-3.78,1c-2.19.72-4.32,1.65-6.54,2.25-3.11.84-6.07.93-8.86-1.4-1.31-1.1-3.29-1.39-5.29-2.17a6.14,6.14,0,0,1,2.06-6c8.3-7.72,14.69-17,21.41-26a35.41,35.41,0,0,0,3.6-6.48c1.18-2.58,1.26-5.08-1.17-7.21a12.54,12.54,0,0,1-4.44-10.58,5.39,5.39,0,0,0-.23-2c-.38-1.13-1.21-1.49-2.55-.94-.87,1.63-.14,3.44.08,5.15a4.14,4.14,0,0,1-2.16,4.56,4.08,4.08,0,0,1-.43.25c-4.87,2.12-7.52,6.18-9.69,10.77a37.82,37.82,0,0,1-6.18,9.55c-1.89,2.06-3.4,2.15-5.53.25a21.74,21.74,0,0,1-2.2-2.68c1.1-2.57,2-5.06,3.19-7.39,3-5.69,4.06-11.87,4.74-18.11a7.62,7.62,0,0,1,3.19-5.79c3.44-2.57,6.78-5.27,10.13-7.95a5.57,5.57,0,0,0,.86-1.32l-1.53-1.36L739.71,789a27.08,27.08,0,0,1-2.21-1.63c-1.48-1.32-2.86-2.75-4.34-4.07a23.21,23.21,0,0,0-10-5.33c-3-.75-6.11-1.42-9.16-2.17a26.87,26.87,0,0,0-12.29-.16,13.89,13.89,0,0,1-3.93.35,12.09,12.09,0,0,1-3.06-1.24c5.87-5,12-8.92,17.57-13.52s11-8.9,15.83-14.39c1.54.92,2.84,1.6,4,2.43,6.11,4.24,12.31,8.37,18.25,12.84,5.28,4,10.17,8.34,14,13.94a116.34,116.34,0,0,0,14.18,17.21c4.35,4.34,6.41,10,7.77,15.82.9,3.85,1.17,7.85,1.76,11.77.18,1.18.34,2.36-.5,3.31C784.73,827.47,784.61,831.4,784.94,835.79Z"/><path class="cls-1" d="M636.77,472.1l5.64-1.3c-1.64,1.65-2.52,2.56-3.42,3.44-3.19,3.12-6.43,6.19-9.56,9.37a20.55,20.55,0,0,0-2.63,3.59c-.43.68-.77,1.69.09,2.22a3.24,3.24,0,0,0,2.29.35,10.46,10.46,0,0,0,2.6-1.4c3.53-2.15,7-4.33,10.58-6.47,1.1-.66,2.26-1.21,3.48-1.86.46,1.28-.43,1.66-.88,2.18q-7.17,8.23-14.41,16.4c-1.76,2-3.67,3.81-5.49,5.73-5,5.33-7.82,11.78-9.29,18.86a4,4,0,0,0,0,1.48c.05.29.32.53.65,1,2.77-.74,4.52-3,6.63-4.75s4.13-3.78,6.87-6.33c-1.77,6.32-4.68,11.76-1.85,17.75,2.19-.65,2.82-2.24,3.49-3.71,2-4.35,3.95-8.74,5.91-13.11,2.84-6.34,5.64-12.69,8.53-19,.73-1.61,1.73-3.1,2.63-4.68.38.3.63.44.61.49-.38,1.07-.77,2.15-1.19,3.2-1.17,2.91-2.4,5.79-3.52,8.73a24.83,24.83,0,0,0-1.67,9.71,25.53,25.53,0,0,1-4.69,15.4c-2,3-4,6.11-6,9.12-2.89,4.26-2.92,4.24-3.77,9.17-2,.46-4.08,1-6.17,1.4-1.28.26-2.6.37-4.09.58-5.43-8.35-13.22-13.59-23-16.83a24.52,24.52,0,0,1,2.68-2.76c3.29-2.37,4.44-5.63,4.14-9.52q-.61-7.91-1.27-15.82c-.14-1.65-.43-3.28-.6-4.92-.33-3.21-.07-6.28,2.13-8.9a4.06,4.06,0,0,0,.7-1.3c2-6,6.14-10.51,9.88-15.33,1.42-1.83,2.83-3.66,4.15-5.56a13.93,13.93,0,0,0,1-2.63c-5.32.29-8.93,3.24-12.93,6.65a8.43,8.43,0,0,1,.46-2c1.88-2.91,3.67-5.91,5.75-8.67,3.58-4.75,7.14-9.53,12-13.09a2.38,2.38,0,0,0,1.17-2.52c-.21-.82-1.67-1.42-3-1.08-2.56.64-5.09,1.41-7.64,2.12a5.62,5.62,0,0,1-3.07.21,11.39,11.39,0,0,1,1.54-1.41,22,22,0,0,0,5.92-5.23,31.8,31.8,0,0,1,7.63-7,50.1,50.1,0,0,0,5.72-4.74,11.13,11.13,0,0,0,1.54-2.71c-3.39-.76-5.67,1.11-8.15,2.18s-5,2.28-7.48,3.42c-.75-1.43.06-2.19.63-2.86,4.63-5.41,7-11.9,9.1-18.56a39.28,39.28,0,0,0,2.14-14.61c-.23-3.63-.09-7.28-.16-10.92A28.37,28.37,0,0,0,627,374.69c-2.88-6.85-5.71-13.72-8.58-20.58-.5-1.19-1.22-2.32-1-3.66.47-.11.91-.33,1-.22,10,9.43,19.88,18.89,30.05,28.58.76,10.85,3.27,21.82,4.4,34a22,22,0,0,1-3.15-7.56q-3.18-11.21-6-22.51c-1-3.81-3.41-6.16-6.8-8.41a20.77,20.77,0,0,0-.89,3.61c-.18,3.47-.31,6.95-.24,10.42a16.43,16.43,0,0,0,.9,5.33,65,65,0,0,1,3.7,21.92,36.27,36.27,0,0,0,4.5,17.05,12.83,12.83,0,0,1,.6,1.35,4.44,4.44,0,0,1,.09.82c-2.46,2.9-5.83,5-9.11,7.17-1.92,1.29-3.83,2.59-5.65,4a9.66,9.66,0,0,0-3.4,4.79,2.05,2.05,0,0,0,.37,1.74,2.27,2.27,0,0,0,1.78.42,10.88,10.88,0,0,0,2.27-1c1.81-.81,3.6-1.68,5.45-2.38a18.33,18.33,0,0,1,3.24-.55c-.57.77-.76,1.25-1.12,1.48q-6.45,4.18-12.95,8.29c-1.69,1.06-3.48,2-4.2,4a2.11,2.11,0,0,0,.18,1.79,1.87,1.87,0,0,0,1.74.35c4.63-2.37,9.83-2.34,15.7-4.3-3.52,3.81-6.88,5.95-9.92,8.43a23.16,23.16,0,0,0-5.67,6.82,11,11,0,0,0-.6,2.7c3.56-.1,6.21-1.23,8.26-3.77l-.21.19A7.92,7.92,0,0,0,637,472Z"/><path class="cls-1" d="M406.29,156.11a9.12,9.12,0,0,0-.66-2.24c-11.42-18.81-22.15-38-32.48-57.43-3.65-6.86-7.13-13.8-9-21.44-2.49-10.19-3.8-20.47-2.9-31,.29-3.45.92-7.06.23-10.35-.65-3.12-2.83-5.92-4.32-8.87-.88-1.74-2.29-3.37-1-5.82.48.38,1.07.64,1.33,1.09,5.73,10.05,11.71,20,17.07,30.23,13.65,26.08,27.05,52.29,40.52,78.47,10,19.41,20,38.8,29.84,58.29,5.8,11.51,11.25,23.21,16.84,34.83.48,1,.84,2.07,1.28,3.15-1.27.58-1.7-.31-2.15-.79a127.39,127.39,0,0,0-16.21-14.6,15.8,15.8,0,0,1-3.67-4q-11.78-17.79-23.79-35.42c-3-4.38-6.12-8.64-9.24-12.91a8.12,8.12,0,0,0-1.84-1.4Z"/><path class="cls-1" d="M813.66,198.81c-.45,3.12-2.46,5.33-4.47,7.5-8.32,9-16.78,17.84-25,26.94-7.87,8.72-15.48,17.67-22.46,27.14-4.61,6.26-9.28,12.49-13.93,18.72a21.34,21.34,0,0,1-1.92,2.27c-8.32,8.38-15.07,18-22,27.52s-14,19.24-21.11,28.82c-.64.87-1,2.16-2.46,2.14l.11.1a24.46,24.46,0,0,1,.82-3.79c2-5.1,4.06-10.13,6-15.23,1.05-2.77,1.93-5.61,2.75-8.46a14.68,14.68,0,0,0,0-3.44l-4.48,3.78a13.61,13.61,0,0,1,0-3.2q4.34-15,8.84-29.95a15.11,15.11,0,0,1,2.21-4.41c5.36-7.37,9.82-15.3,14.71-23a165.15,165.15,0,0,1,25.36-30.42,51,51,0,0,0,6.66-8c2.54-3.66,5.38-7.12,8.13-10.64a26.46,26.46,0,0,1,2.12-2.1c0,.89.14,1.34,0,1.61-8.24,13.4-15.17,27.51-22.71,41.28-6.19,11.31-12.83,22.37-19.22,33.56-3.28,5.74-6.55,11.49-9.62,17.34a81.28,81.28,0,0,0-6.37,17.18,2.77,2.77,0,0,0,.23,2.06c.63-1.07,1.34-2.1,1.87-3.23,2.51-5.4,5.12-10.75,7.4-16.25,3.11-7.52,7.18-14.51,11.29-21.49s8.14-13.63,12.21-20.45a28.71,28.71,0,0,1,5.64-6.86c8.91-7.91,17.85-15.78,26.56-23.9a14.29,14.29,0,0,1,9.28-4.13c4.17-.19,7.19-2.08,9.85-5q5.53-6,11.11-12c.75-.8,1.23-2,2.65-2Z"/><path class="cls-1" d="M489.56,295l-1.71-1.81L485.32,295a5.42,5.42,0,0,1-1.21-.59q-10.31-8.57-20.58-17.17c-4.18-3.51-8.34-7-12.44-10.66-6.2-5.47-12.34-11-18.51-16.51-3-2.64-5.85-5.38-8.92-7.89a17.1,17.1,0,0,1-5.29-7.06c-2.06-5.26-5.1-10-7.71-15a13,13,0,0,0-4-4.34c-1.59-1.19-3.23-2.31-4.74-3.59-.25-.21.07-1.09.17-2.08a15,15,0,0,1,2.06,1.06c11.12,8.61,22.26,17.19,33.3,25.89,3.76,3,7.27,6.25,10.85,9.45,4.81,4.3,9.57,8.66,14.36,13a35.42,35.42,0,0,0,9.37,6.42,9.54,9.54,0,0,0,1.91.29c-1-1.4-1.63-2.44-2.36-3.43-5.57-7.6-11.29-15.1-16.7-22.81-6.36-9.07-12.42-18.36-18.72-27.47a8.19,8.19,0,0,1-1.63-6.83,10,10,0,0,1,2,.92c3.41,2.62,6.91,5.14,10.12,8,3.59,3.17,7,6.55,10.32,10,3.55,3.7,6.89,7.59,10.35,11.38.62.67,1.36,1.24,2.42,2.2.2-2.45-.69-4.08-1.35-5.7A248.72,248.72,0,0,0,457,208.23a68.71,68.71,0,0,1-7.44-19.37,18.75,18.75,0,0,1-.46-7.27c1.49-.25,1.72,1,2.2,1.69a205.1,205.1,0,0,1,17.24,32.35c5.35,12.45,10.91,24.82,16.46,37.19a32.34,32.34,0,0,1,2.76,9,37.38,37.38,0,0,0,3.62,11.29c2,4.16,4.18,8.26,6.28,12.38l1.57,3.05c-.85.85-1.28.14-1.6-.36-1.61-2.5-3.27-5-4.71-7.57-1.92-3.47-3.65-7-6.15-10.17-1.22-1.53-1.93-3.46-3-5.14a11.12,11.12,0,0,0-1.88-1.78c-.47.86-1,1.39-1,2a29.59,29.59,0,0,0,.65,10.8,39.24,39.24,0,0,0,10.1,17.39,16,16,0,0,1,1.25,1.53,3.35,3.35,0,0,1,.27.61l-3.74-.93Z"/><path class="cls-1" d="M660.67,676.74c.13-2.83.24-6,.41-9.09a66.31,66.31,0,0,0,.44-6.93,19.22,19.22,0,0,1,3.15-11.18c5.7-9.53,11.6-18.89,19.3-27a41.09,41.09,0,0,1,4-3.71,7.7,7.7,0,0,1,7.82-1.33c.51,7.09-3.32,19-9.13,28.27.76,3.1,1.61,6.44,2.39,9.79a147.21,147.21,0,0,1,3.34,20,24.53,24.53,0,0,1-1,10.81,104.54,104.54,0,0,1,6.91,21.19,6.82,6.82,0,0,1-.07,1.86c-5.31,1.19-5.31,1.18-10,5a25,25,0,0,1-5.41,3.94c-.82-3-.74-5.77-1.09-8.48-.17-1.31-.11-2.64-.21-4a12.07,12.07,0,0,0-2.83-7.25c-1.08-1.26-2.1-2.56-3.13-3.85a17.77,17.77,0,0,1-2.71-3.53c-2.49-5.66-7.28-9.32-11.4-13.57A11.92,11.92,0,0,1,660.67,676.74Z"/><path class="cls-1" d="M512.14,341.24c1.36-2.23,2.73-4.45,4.06-6.7a2.66,2.66,0,0,0,.37-1.41c0-.62-.13-1.61-.48-1.75a2.75,2.75,0,0,0-2.27,0c-2.47,1.91-4.79,4-7.18,6-1.24,1-2.52,2-3.75,3-1-.91-.31-1.48,0-1.95,2.08-3.16,4.22-6.29,6.35-9.42.74-1.09,1.55-2.13,2.24-3.25s1.24-2.21,2-3.54c-4.12-.41-7.9-.52-11.56-1.22-5.31-1-10.76-1.4-15.93-3.22-3.66-1.29-6-3.81-8.26-7.51a14.05,14.05,0,0,1,2.62.27c3.27,1.1,6.51,2.32,9.79,3.39a9.26,9.26,0,0,0,2.76-.14c-1.65-2.19-4-2.42-5.6-3.71s-3.42-2.58-5.06-4-3.23-2.83-4.78-4.31a50.48,50.48,0,0,1-4.49-4.61c-1.29-1.61-3-3.06-3.19-5.72,1.28,0,2.48-.31,3.43.06,3.22,1.22,6.51,2.34,9.29,4.53,5.32,4.18,10.71,8.27,16.08,12.39.78.59,1.6,1.12,2.36,1.64,1.55-1.09.48-1.88-.16-2.4-3.08-2.48-6.2-4.93-9.4-7.25a7.93,7.93,0,0,1-3.26-4.44c.49-.34,1-.69,1.49-1l-.16-.15c3.91,3.78,8.51,6.58,12.93,9.4,1.23-.92.53-1.49.21-1.89-1.56-1.92-3.18-3.81-4.82-5.67-2.85-3.22-5.75-6.4-8.59-9.63a20.48,20.48,0,0,1-4.7-9.18c-.63-2.84-1.79-5.63-1.52-8.72,1.78.25,2.15,1.71,2.81,2.74,2.49,3.9,4.65,8,7.29,11.82,3.48,5,7.28,9.82,11,14.69.52.68,1.3.91,2.55.5-1.55-3.39-3-6.65-4.77-9.73a105.6,105.6,0,0,1-11.36-27.38,35.92,35.92,0,0,1-.75-7.94c2.2,1.82,2.48,4,3.27,5.84s1.5,4,2.43,6,2.14,3.73,3.15,5.62,2.12,4.11,3.13,6.19,1.79,3.91,2.76,5.82,2,3.79,3.08,5.66,2.11,3.69,3.11,5.42c1.33-.14,1.85-.78,1.49-1.68a30.88,30.88,0,0,0-2-4q-1.87-3.21-3.86-6.36a20.59,20.59,0,0,1-3.18-8.24,20.29,20.29,0,0,0-1.37-4.74,46.07,46.07,0,0,1-2.94-12.51c-.26-2.4-.59-4.79-.93-7.57,1.95.91,2.47,2.33,3.1,3.64,2.87,6,5.83,11.88,8.53,17.91,1.21,2.7,1.85,5.64,2.81,8.45q2.88,8.44,5.84,16.85c.15.43.58.75,1.18,1.51l1-4.32c1.43-.18,1.26.89,1.36,1.56,1.36,8.83,2.67,17.66,4,26.49.59,3.92,1.46,7.82,1.79,11.77.67,8.07,1.08,16.17,1.57,24.26.26,4.28.45,8.56.67,12.84-1.37.15-1.68-.71-1.86-1.43-.79-3-1.64-6.06-2.18-9.14-.76-4.39-1.27-8.83-1.88-13.25a10.68,10.68,0,0,0-1.54-4.63c-1.88,1-2.26,2.5-2.53,4.18-.44,2.77-.84,5.56-2.3,8-1.19-.17-1.15-1.07-1.07-1.83a25,25,0,0,1,.72-4.89,19.58,19.58,0,0,0,.45-8.73c-1.32-.69-1.92.24-2.58.93s-1,2.24-2.61,1.65Z"/><path class="cls-1" d="M764.44,585.5c4,4.88,7.36,10.4,12.83,14.73a7.84,7.84,0,0,1-2.09.84c-3.46.05-5.23,2-6.58,5a117.6,117.6,0,0,1-5.68,10.44c-.81,1.4-1.87,2.66-2.7,3.83-2.84,0-5.5-.58-7.7.16s-4.07,2.75-5.95,4.35a79.08,79.08,0,0,0-6.14,5.72,7.31,7.31,0,0,1-3.68,2.33c-2.41.57-4.8,1.22-7.19,1.84l-8.16,2.15c-2.24-.76-3.93-3.1-5.84-5.09A79.84,79.84,0,0,1,704.47,618C708.35,615.09,760,587.1,764.44,585.5Z"/><path class="cls-1" d="M506.3,492l-.54.38c-1.41.85-2.79,1.75-4.24,2.53-.64.34-1.32,1.13-2.36.12a12.75,12.75,0,0,1,.93-5.09c.71-1.67,1.55-3.29,2.18-5a12.14,12.14,0,0,1,4.12-6c3.84-2.86,4.65-7.11,4.79-12-2.06.76-3,2.22-4.13,3.3-1.52,1.39-1.51,1.41-4.48,2.16,1.25-1.58,2.32-2.8,3.22-4.13A23.85,23.85,0,0,0,508.2,464c.2-.5-.46-1.35-.76-2.12-2.84,1.92-5.34,3.77-8,5.38s-5.24,3.71-8.56,5a22.36,22.36,0,0,1,2.34-10.4c1-2.23,2.62-4.22,2.61-6.83l-.12.2c2.35-3.07,2.43-3.25,3-7.22-5.6,3.36-9.68,8.61-16.4,11.13,1.09-2.76,2.17-4.74,3.91-6.22,3.13-2.67,6.35-5.24,9.55-7.82,1.15-.93,2.4-1.73,3.56-2.64.48-.38,1.11-.86.3-1.58-4.35,1.15-8.1,3.52-11.67,6.11-2.94,2.13-6.2,2.77-10.22,3.2a23.79,23.79,0,0,1,2-2.62c3.32-3.21,6.69-6.35,10-9.54,1.19-1.14,2.36-2.31,3.46-3.53a1.56,1.56,0,0,0,0-2.43,93.94,93.94,0,0,0-9,4.76c-2.54,1.69-5.48,2.93-7.42,5.47l.22-.18c-2.27-.1-4.34,1.54-6.75.92,5.12-9.42,18.21-20.48,27.2-22.82-.84,2.37-2.65,3.88-3.72,5.83-.57,1-.47,1.86.73,2.72,3.25-.88,6-3,8.82-4.92a22.63,22.63,0,0,1,7.14-3.25,6.93,6.93,0,0,1,1.74.08,24,24,0,0,1-1.51,2.14c-1.87,2.09-3.8,4.12-5.66,6.22-2.88,3.25-2.86,3.26-1.53,8.26a6.1,6.1,0,0,0,2.1-.77c2.36-2.17,5.25-3.26,8.53-4.51a8.79,8.79,0,0,1-2,3.87,49.8,49.8,0,0,0-7.5,16.59,6.83,6.83,0,0,0,.54,5.67,5.71,5.71,0,0,0,4-2.7,14.36,14.36,0,0,1,5.9-4.3c2.36-1.11,4.55-2.6,7-4.07-.39,2.86-3.45,4.33-3.53,7.16l.15-.19c-3.5,2.8-3.94,6.57-3.21,10.61.15.82.94,1.53,1.44,2.32,2.42-1.14,4.18-3.31,7-2.61-1.44,2.37-2.88,4.57-4.13,6.87a2.6,2.6,0,0,0,.14,3.25,3.26,3.26,0,0,0,3.68.67c1.52-.64,3-1.37,4.53-2,.56-.24,1.17-.7,1.85,0-.22.4-.36,1-.71,1.22-2.69,2-4.48,4.83-6.42,7.5a10.28,10.28,0,0,0-2.17,5.42,12,12,0,0,1-3.06,7.68c-2.76,2.84-5.59,5.62-8.51,8.3-2,1.83-2.62,2-6.21,2.73a27.31,27.31,0,0,1,6.8-12,40.06,40.06,0,0,0,6-8.43,2.26,2.26,0,0,0-.61-3.17c-2.57,2.7-5,5.2-7.32,7.71C507.32,490.67,506.83,491.33,506.3,492Z"/><path class="cls-1" d="M666.51,316.51l-3.2-1.5c-1.93,2.1-2.29,4.56-2.48,7-.23,3-.24,6-.41,8.92-.07,1.09.36,2.33-.91,3.44a7.85,7.85,0,0,1-1.15-1.3c-1.11-2-2.1-4.13-3.25-6.13a21.41,21.41,0,0,1-3.29-9.63c-.23-3.75-1.55-7.42-2.34-11.14-1.44-6.79-3.12-13.55-4.19-20.4a50.68,50.68,0,0,1,1.17-22.15c3-10.48,6.3-20.9,10.82-30.86a13.32,13.32,0,0,0,1.27-6.69c-.34-4.79-.53-9.58-.74-14.38,0-.92.08-1.84.17-3.41.9.87,1.55,1.21,1.73,1.72a13.63,13.63,0,0,1,.78,3.37c1.36,14.5,3,29,2.48,43.58-.46,11.8,1.1,23.45,2.15,35.14.67,7.41,1.1,14.85,1.61,22.27A14.84,14.84,0,0,1,666.51,316.51Z"/><path class="cls-1" d="M564.45,758.88c-.38-1.61.36-3.15.89-4.67,1.85-5.27,3-6,8.38-4.9,4,.81,8.06,1.8,12.08,2.78q21.43,5.22,42.84,10.5a20.65,20.65,0,0,1,2,.68l6.7,11.84c-.4.17-.71.44-1,.38q-35.57-7.91-71.12-15.89C565,759.54,564.8,759.19,564.45,758.88Z"/><path class="cls-1" d="M603.24,1035.82c-2.72-1.57-3.92-3.59-5.51-5.22a79.58,79.58,0,0,0-6-5.89c-5-4.15-9.06-9.15-13.27-14a5.9,5.9,0,0,1-1.42-4.1c0-3.31.1-6.62.36-9.91s2.38-5.65,2.76-9.58c2.7,2.69,4.57,4.78,6.68,6.59s4.65,3.17,6.7,5.05c4.63,4.24,9.09,8.67,13.58,13.06a4.91,4.91,0,0,1,1.66,2.34c.61,4.67,2.63,8.81,4.43,13.06a14.67,14.67,0,0,1,.45,1.65c-1.56.11-2.55-.74-3.68-1.27a18.35,18.35,0,0,0-4.61-1.59c-1.62-.27-2.77,1.12-2.6,2.83.15,1.47.46,2.93.62,4.41A19.16,19.16,0,0,1,603.24,1035.82Z"/><path class="cls-1" d="M479,462a8.69,8.69,0,0,0-2.37.3,12.43,12.43,0,0,0-3,1.77c-6.71,5.43-14.57,9-21.83,13.53-2.1,1.31-4.15,2.68-6.22,4a28,28,0,0,1-2.49,1.61c-2.31,1.17-4.66,2.27-7,3.41-.81-1,.1-1.83.54-2.56a126.26,126.26,0,0,1,20.21-25.57c3.79-3.66,8-6.88,10.94-11.38.79-1.23,2.12-1.45,3.36-1.9,2.11-.77,4.51-1,5.91-3.16l-.22.18c.92-.25,1.86-.45,2.77-.75,1.38-.46,2.73-1,4.09-1.51l.32.34c-2,2.15-4,4.28-6,6.45s-3.78,4-4.55,7.09c4.1.44,7.32-2,11.3-2.79l-6,11Z"/><path class="cls-1" d="M652.56,337.51c-.6,1-.82,1.41-1.07,1.8s-.53.8-1,1.44c-3.85-4.19-7.43-8.05-11-11.94-1.33-1.46-2.6-3-3.9-4.49A15.47,15.47,0,0,1,632.28,310l1.67-7.23c1-4.12-.1-7.84-2.25-11.35-1.12-1.83-2.26-3.65-3.3-5.53a10,10,0,0,1-.36-2.6,30.19,30.19,0,0,1,2.1,2.54c5.57,9,11,18.07,15.79,27.5,4.14,8.08,8.46,16.08,12.82,24a11.21,11.21,0,0,1,1.63,6.09c-.27,5.6-.48,11.2-.74,17.46-1.38-1.78-1.46-3.35-1.79-4.82q-1.56-7-3.16-14A10.64,10.64,0,0,0,652.56,337.51Z"/><path class="cls-1" d="M815.24,228c-2,1.65-3.65,3-5.27,4.35-10.26,8.64-21.36,16.11-32.48,23.57-5.62,3.77-11,8-16.41,12a13.7,13.7,0,0,1-3.86,2.28,24.44,24.44,0,0,1,1.4-2.38c7.61-10.19,15.22-20.39,23.42-30.14a10.74,10.74,0,0,1,8.48-4.26c3.8-.09,7.58-.69,11.37-.74,3.49,0,6.53-.66,8.7-3.71C811.52,227.65,812.89,227.14,815.24,228Z"/><path class="cls-1" d="M650.17,348.92c-2.79,3.51-2.63,7.13-2.46,10.78.13,2.91.33,5.84.19,8.62-1.22.45-1.54-.28-1.91-.75q-6.34-7.92-12.63-15.88c-.82-1-1.53-2.15-2.32-3.2a16.19,16.19,0,0,1-3.25-13.05,6.18,6.18,0,0,0-1.72-5.85,26.75,26.75,0,0,1-2.53-3c-.56-.78-1-1.7-.06-2.57.17.05.39,0,.48.15,5.95,7.37,13.56,13,20.43,19.36C646.2,345.17,648,346.86,650.17,348.92Z"/><path class="cls-1" d="M473.28,288.85a62,62,0,0,1-14.15-4.51c-5.9-2.58-11.71-5.35-17.51-8.16C435,273,429.44,268.3,424.3,263.1c-.17-.18-.11-.59-.15-.89,5.94.74,16.19,3.6,20.81,5.79a8.27,8.27,0,0,0,2.26,1c3.66.47,6.34,2.67,9,4.9q7.79,6.53,15.54,13.1A16.49,16.49,0,0,1,473.28,288.85Z"/><path class="cls-1" d="M725.46,653c-.33-.34-.66-.68-1-1s-.56-.68-1.11-1.34a28.83,28.83,0,0,1,11.39-.69c.31,0,.54.64.92,1.11a41.59,41.59,0,0,1-6.09,2.26c-1.34.28-2.86-.26-4.3-.44Z"/><path class="cls-1" d="M720.71,660.75a27.33,27.33,0,0,1-3.21-1.11,1.92,1.92,0,0,1-1-1.47,2,2,0,0,1,1-1.47,17,17,0,0,1,4.22-.87c1.67-.1,2.62,1.09,2.58,2.83C724.34,660,723.35,660.77,720.71,660.75Z"/><path class="cls-1" d="M813.76,198.9l.28-1.13.51.39-.89.65Z"/><path class="cls-1" d="M366,1039.56l-1.89.47c.67-.93,1.36-.42,2-.41Z"/><path class="cls-1" d="M512.23,341.2v.69c.07-.1.21-.22.19-.3s-.17-.24-.26-.35Z"/><path class="cls-1" d="M700.35,339.84c.07.14.23.33.19.42a5.3,5.3,0,0,1-.49.78l-.36-.3.77-.8Z"/><path class="cls-1" d="M551.51,531.74v-2c.61,1,.61,1-.1,1.88Z"/><path class="cls-1" d="M483.66,440c.69-1.32,1.85-1.95,3.64-2.38a4.82,4.82,0,0,1-3.32,2.72Z"/></svg>